<mxfile host="app.diagrams.net" agent="Mozilla/5.0 (Macintosh; Intel Mac OS X 10_15_7) AppleWebKit/537.36 (KHTML, like Gecko) Chrome/127.0.0.0 Safari/537.36" version="24.7.7">
  <diagram name="Page-1" id="FC6P-IFupvh18o4-MCou">
    <mxGraphModel dx="1711" dy="1277" grid="1" gridSize="10" guides="1" tooltips="1" connect="1" arrows="1" fold="1" page="1" pageScale="1" pageWidth="850" pageHeight="1100" math="0" shadow="0">
      <root>
        <mxCell id="0" />
        <mxCell id="1" parent="0" />
        <mxCell id="7dqATPPd59ue_RF7xPIM-1" value="(c) shingaridavesh@gmail.com" style="text;html=1;align=center;verticalAlign=middle;whiteSpace=wrap;rounded=0;fontSize=36;fontColor=#f2eeee;rotation=-42;" parent="1" vertex="1">
          <mxGeometry x="135" y="510" width="870" height="30" as="geometry" />
        </mxCell>
        <mxCell id="7dqATPPd59ue_RF7xPIM-2" value="" style="endArrow=classic;html=1;rounded=0;strokeColor=#0a0a0a;strokeWidth=3;endFill=1;" parent="1" edge="1">
          <mxGeometry width="50" height="50" relative="1" as="geometry">
            <mxPoint x="175" y="290" as="sourcePoint" />
            <mxPoint x="195" y="250" as="targetPoint" />
          </mxGeometry>
        </mxCell>
        <mxCell id="7dqATPPd59ue_RF7xPIM-3" value="" style="endArrow=none;html=1;rounded=0;strokeColor=#0a0a0a;strokeWidth=3;" parent="1" edge="1">
          <mxGeometry width="50" height="50" relative="1" as="geometry">
            <mxPoint x="195" y="250" as="sourcePoint" />
            <mxPoint x="235" y="250" as="targetPoint" />
          </mxGeometry>
        </mxCell>
        <mxCell id="7dqATPPd59ue_RF7xPIM-4" value="" style="endArrow=none;html=1;rounded=0;strokeColor=#0a0a0a;strokeWidth=3;" parent="1" edge="1">
          <mxGeometry width="50" height="50" relative="1" as="geometry">
            <mxPoint x="255" y="290" as="sourcePoint" />
            <mxPoint x="235" y="250" as="targetPoint" />
          </mxGeometry>
        </mxCell>
        <mxCell id="7dqATPPd59ue_RF7xPIM-5" value="" style="endArrow=none;html=1;rounded=0;strokeColor=#0a0a0a;strokeWidth=3;" parent="1" edge="1">
          <mxGeometry width="50" height="50" relative="1" as="geometry">
            <mxPoint x="255" y="290" as="sourcePoint" />
            <mxPoint x="295" y="290" as="targetPoint" />
          </mxGeometry>
        </mxCell>
        <mxCell id="7dqATPPd59ue_RF7xPIM-6" value="" style="endArrow=classic;html=1;rounded=0;strokeColor=#0a0a0a;strokeWidth=3;endFill=1;" parent="1" edge="1">
          <mxGeometry width="50" height="50" relative="1" as="geometry">
            <mxPoint x="295" y="290" as="sourcePoint" />
            <mxPoint x="315" y="250" as="targetPoint" />
          </mxGeometry>
        </mxCell>
        <mxCell id="7dqATPPd59ue_RF7xPIM-7" value="" style="endArrow=none;html=1;rounded=0;strokeColor=#0a0a0a;strokeWidth=3;" parent="1" edge="1">
          <mxGeometry width="50" height="50" relative="1" as="geometry">
            <mxPoint x="315" y="250" as="sourcePoint" />
            <mxPoint x="355" y="250" as="targetPoint" />
          </mxGeometry>
        </mxCell>
        <mxCell id="7dqATPPd59ue_RF7xPIM-8" value="" style="endArrow=none;html=1;rounded=0;strokeColor=#0a0a0a;strokeWidth=3;" parent="1" edge="1">
          <mxGeometry width="50" height="50" relative="1" as="geometry">
            <mxPoint x="375" y="290" as="sourcePoint" />
            <mxPoint x="355" y="250" as="targetPoint" />
          </mxGeometry>
        </mxCell>
        <mxCell id="7dqATPPd59ue_RF7xPIM-9" value="" style="endArrow=none;html=1;rounded=0;strokeColor=#0a0a0a;strokeWidth=3;" parent="1" edge="1">
          <mxGeometry width="50" height="50" relative="1" as="geometry">
            <mxPoint x="375" y="290" as="sourcePoint" />
            <mxPoint x="415" y="290" as="targetPoint" />
          </mxGeometry>
        </mxCell>
        <mxCell id="7dqATPPd59ue_RF7xPIM-10" value="" style="endArrow=classic;html=1;rounded=0;strokeColor=#0a0a0a;strokeWidth=3;endFill=1;" parent="1" edge="1">
          <mxGeometry width="50" height="50" relative="1" as="geometry">
            <mxPoint x="415" y="290" as="sourcePoint" />
            <mxPoint x="435" y="250" as="targetPoint" />
          </mxGeometry>
        </mxCell>
        <mxCell id="7dqATPPd59ue_RF7xPIM-11" value="" style="endArrow=none;html=1;rounded=0;strokeColor=#0a0a0a;strokeWidth=3;" parent="1" edge="1">
          <mxGeometry width="50" height="50" relative="1" as="geometry">
            <mxPoint x="435" y="250" as="sourcePoint" />
            <mxPoint x="475" y="250" as="targetPoint" />
          </mxGeometry>
        </mxCell>
        <mxCell id="7dqATPPd59ue_RF7xPIM-12" value="" style="endArrow=none;html=1;rounded=0;strokeColor=#0a0a0a;strokeWidth=3;" parent="1" edge="1">
          <mxGeometry width="50" height="50" relative="1" as="geometry">
            <mxPoint x="495" y="290" as="sourcePoint" />
            <mxPoint x="475" y="250" as="targetPoint" />
          </mxGeometry>
        </mxCell>
        <mxCell id="7dqATPPd59ue_RF7xPIM-13" value="" style="endArrow=none;html=1;rounded=0;strokeColor=#0a0a0a;strokeWidth=3;" parent="1" edge="1">
          <mxGeometry width="50" height="50" relative="1" as="geometry">
            <mxPoint x="495" y="290" as="sourcePoint" />
            <mxPoint x="535" y="290" as="targetPoint" />
          </mxGeometry>
        </mxCell>
        <mxCell id="7dqATPPd59ue_RF7xPIM-14" value="" style="endArrow=classic;html=1;rounded=0;strokeColor=#0a0a0a;strokeWidth=3;endFill=1;" parent="1" edge="1">
          <mxGeometry width="50" height="50" relative="1" as="geometry">
            <mxPoint x="535" y="290" as="sourcePoint" />
            <mxPoint x="555" y="250" as="targetPoint" />
          </mxGeometry>
        </mxCell>
        <mxCell id="7dqATPPd59ue_RF7xPIM-15" value="" style="endArrow=none;html=1;rounded=0;strokeColor=#0a0a0a;strokeWidth=3;" parent="1" edge="1">
          <mxGeometry width="50" height="50" relative="1" as="geometry">
            <mxPoint x="555" y="250" as="sourcePoint" />
            <mxPoint x="595" y="250" as="targetPoint" />
          </mxGeometry>
        </mxCell>
        <mxCell id="7dqATPPd59ue_RF7xPIM-16" value="" style="endArrow=none;html=1;rounded=0;strokeColor=#0a0a0a;strokeWidth=3;" parent="1" edge="1">
          <mxGeometry width="50" height="50" relative="1" as="geometry">
            <mxPoint x="615" y="290" as="sourcePoint" />
            <mxPoint x="595" y="250" as="targetPoint" />
          </mxGeometry>
        </mxCell>
        <mxCell id="7dqATPPd59ue_RF7xPIM-17" value="" style="endArrow=none;html=1;rounded=0;strokeColor=#0a0a0a;strokeWidth=3;" parent="1" edge="1">
          <mxGeometry width="50" height="50" relative="1" as="geometry">
            <mxPoint x="615" y="290" as="sourcePoint" />
            <mxPoint x="655" y="290" as="targetPoint" />
          </mxGeometry>
        </mxCell>
        <mxCell id="7dqATPPd59ue_RF7xPIM-18" value="" style="endArrow=classic;html=1;rounded=0;strokeColor=#0a0a0a;strokeWidth=3;endFill=1;" parent="1" edge="1">
          <mxGeometry width="50" height="50" relative="1" as="geometry">
            <mxPoint x="655" y="290" as="sourcePoint" />
            <mxPoint x="675" y="250" as="targetPoint" />
          </mxGeometry>
        </mxCell>
        <mxCell id="7dqATPPd59ue_RF7xPIM-19" value="" style="endArrow=none;html=1;rounded=0;strokeColor=#0a0a0a;strokeWidth=3;" parent="1" edge="1">
          <mxGeometry width="50" height="50" relative="1" as="geometry">
            <mxPoint x="135" y="290" as="sourcePoint" />
            <mxPoint x="175" y="290" as="targetPoint" />
          </mxGeometry>
        </mxCell>
        <mxCell id="7dqATPPd59ue_RF7xPIM-20" value="" style="endArrow=none;html=1;rounded=0;strokeColor=#0a0a0a;strokeWidth=3;dashed=1;" parent="1" edge="1">
          <mxGeometry width="50" height="50" relative="1" as="geometry">
            <mxPoint x="136" y="250" as="sourcePoint" />
            <mxPoint x="176" y="250" as="targetPoint" />
          </mxGeometry>
        </mxCell>
        <mxCell id="7dqATPPd59ue_RF7xPIM-21" value="" style="endArrow=none;html=1;rounded=0;strokeColor=#0a0a0a;strokeWidth=3;dashed=1;" parent="1" edge="1">
          <mxGeometry width="50" height="50" relative="1" as="geometry">
            <mxPoint x="196" y="290" as="sourcePoint" />
            <mxPoint x="176" y="250" as="targetPoint" />
          </mxGeometry>
        </mxCell>
        <mxCell id="7dqATPPd59ue_RF7xPIM-22" value="" style="endArrow=none;html=1;rounded=0;strokeColor=#0a0a0a;strokeWidth=3;dashed=1;" parent="1" edge="1">
          <mxGeometry width="50" height="50" relative="1" as="geometry">
            <mxPoint x="196" y="290" as="sourcePoint" />
            <mxPoint x="236" y="290" as="targetPoint" />
          </mxGeometry>
        </mxCell>
        <mxCell id="7dqATPPd59ue_RF7xPIM-23" value="" style="endArrow=none;html=1;rounded=0;strokeColor=#0a0a0a;strokeWidth=3;dashed=1;" parent="1" edge="1">
          <mxGeometry width="50" height="50" relative="1" as="geometry">
            <mxPoint x="236" y="290" as="sourcePoint" />
            <mxPoint x="256" y="250" as="targetPoint" />
          </mxGeometry>
        </mxCell>
        <mxCell id="7dqATPPd59ue_RF7xPIM-24" value="" style="endArrow=none;html=1;rounded=0;strokeColor=#0a0a0a;strokeWidth=3;dashed=1;" parent="1" edge="1">
          <mxGeometry width="50" height="50" relative="1" as="geometry">
            <mxPoint x="256" y="250" as="sourcePoint" />
            <mxPoint x="296" y="250" as="targetPoint" />
          </mxGeometry>
        </mxCell>
        <mxCell id="7dqATPPd59ue_RF7xPIM-25" value="" style="endArrow=none;html=1;rounded=0;strokeColor=#0a0a0a;strokeWidth=3;dashed=1;" parent="1" edge="1">
          <mxGeometry width="50" height="50" relative="1" as="geometry">
            <mxPoint x="316" y="290" as="sourcePoint" />
            <mxPoint x="296" y="250" as="targetPoint" />
          </mxGeometry>
        </mxCell>
        <mxCell id="7dqATPPd59ue_RF7xPIM-26" value="" style="endArrow=none;html=1;rounded=0;strokeColor=#0a0a0a;strokeWidth=3;dashed=1;" parent="1" edge="1">
          <mxGeometry width="50" height="50" relative="1" as="geometry">
            <mxPoint x="316" y="290" as="sourcePoint" />
            <mxPoint x="356" y="290" as="targetPoint" />
          </mxGeometry>
        </mxCell>
        <mxCell id="7dqATPPd59ue_RF7xPIM-27" value="" style="endArrow=none;html=1;rounded=0;strokeColor=#0a0a0a;strokeWidth=3;dashed=1;" parent="1" edge="1">
          <mxGeometry width="50" height="50" relative="1" as="geometry">
            <mxPoint x="356" y="290" as="sourcePoint" />
            <mxPoint x="376" y="250" as="targetPoint" />
          </mxGeometry>
        </mxCell>
        <mxCell id="7dqATPPd59ue_RF7xPIM-28" value="" style="endArrow=none;html=1;rounded=0;strokeColor=#0a0a0a;strokeWidth=3;dashed=1;" parent="1" edge="1">
          <mxGeometry width="50" height="50" relative="1" as="geometry">
            <mxPoint x="376" y="250" as="sourcePoint" />
            <mxPoint x="416" y="250" as="targetPoint" />
          </mxGeometry>
        </mxCell>
        <mxCell id="7dqATPPd59ue_RF7xPIM-29" value="" style="endArrow=none;html=1;rounded=0;strokeColor=#0a0a0a;strokeWidth=3;dashed=1;" parent="1" edge="1">
          <mxGeometry width="50" height="50" relative="1" as="geometry">
            <mxPoint x="436" y="290" as="sourcePoint" />
            <mxPoint x="416" y="250" as="targetPoint" />
          </mxGeometry>
        </mxCell>
        <mxCell id="7dqATPPd59ue_RF7xPIM-30" value="" style="endArrow=none;html=1;rounded=0;strokeColor=#0a0a0a;strokeWidth=3;dashed=1;" parent="1" edge="1">
          <mxGeometry width="50" height="50" relative="1" as="geometry">
            <mxPoint x="436" y="290" as="sourcePoint" />
            <mxPoint x="476" y="290" as="targetPoint" />
          </mxGeometry>
        </mxCell>
        <mxCell id="7dqATPPd59ue_RF7xPIM-31" value="" style="endArrow=none;html=1;rounded=0;strokeColor=#0a0a0a;strokeWidth=3;dashed=1;" parent="1" edge="1">
          <mxGeometry width="50" height="50" relative="1" as="geometry">
            <mxPoint x="476" y="290" as="sourcePoint" />
            <mxPoint x="496" y="250" as="targetPoint" />
          </mxGeometry>
        </mxCell>
        <mxCell id="7dqATPPd59ue_RF7xPIM-32" value="" style="endArrow=none;html=1;rounded=0;strokeColor=#0a0a0a;strokeWidth=3;dashed=1;" parent="1" edge="1">
          <mxGeometry width="50" height="50" relative="1" as="geometry">
            <mxPoint x="496" y="250" as="sourcePoint" />
            <mxPoint x="536" y="250" as="targetPoint" />
          </mxGeometry>
        </mxCell>
        <mxCell id="7dqATPPd59ue_RF7xPIM-33" value="" style="endArrow=none;html=1;rounded=0;strokeColor=#0a0a0a;strokeWidth=3;dashed=1;" parent="1" edge="1">
          <mxGeometry width="50" height="50" relative="1" as="geometry">
            <mxPoint x="556" y="290" as="sourcePoint" />
            <mxPoint x="536" y="250" as="targetPoint" />
          </mxGeometry>
        </mxCell>
        <mxCell id="7dqATPPd59ue_RF7xPIM-34" value="" style="endArrow=none;html=1;rounded=0;strokeColor=#0a0a0a;strokeWidth=3;dashed=1;" parent="1" edge="1">
          <mxGeometry width="50" height="50" relative="1" as="geometry">
            <mxPoint x="556" y="290" as="sourcePoint" />
            <mxPoint x="596" y="290" as="targetPoint" />
          </mxGeometry>
        </mxCell>
        <mxCell id="7dqATPPd59ue_RF7xPIM-35" value="" style="endArrow=none;html=1;rounded=0;strokeColor=#0a0a0a;strokeWidth=3;dashed=1;" parent="1" edge="1">
          <mxGeometry width="50" height="50" relative="1" as="geometry">
            <mxPoint x="596" y="290" as="sourcePoint" />
            <mxPoint x="616" y="250" as="targetPoint" />
          </mxGeometry>
        </mxCell>
        <mxCell id="7dqATPPd59ue_RF7xPIM-36" value="" style="endArrow=none;html=1;rounded=0;strokeColor=#0a0a0a;strokeWidth=3;dashed=1;" parent="1" edge="1">
          <mxGeometry width="50" height="50" relative="1" as="geometry">
            <mxPoint x="615" y="250" as="sourcePoint" />
            <mxPoint x="655" y="250" as="targetPoint" />
          </mxGeometry>
        </mxCell>
        <mxCell id="7dqATPPd59ue_RF7xPIM-37" value="" style="endArrow=none;html=1;rounded=0;strokeColor=#0a0a0a;strokeWidth=3;dashed=1;" parent="1" edge="1">
          <mxGeometry width="50" height="50" relative="1" as="geometry">
            <mxPoint x="675" y="290" as="sourcePoint" />
            <mxPoint x="655" y="250" as="targetPoint" />
          </mxGeometry>
        </mxCell>
        <mxCell id="7dqATPPd59ue_RF7xPIM-38" value="" style="endArrow=none;html=1;rounded=0;strokeColor=#160160;strokeWidth=3;" parent="1" edge="1">
          <mxGeometry width="50" height="50" relative="1" as="geometry">
            <mxPoint x="164" y="350" as="sourcePoint" />
            <mxPoint x="144" y="310" as="targetPoint" />
          </mxGeometry>
        </mxCell>
        <mxCell id="7dqATPPd59ue_RF7xPIM-39" value="" style="endArrow=none;html=1;rounded=0;strokeColor=#160160;strokeWidth=3;" parent="1" edge="1">
          <mxGeometry width="50" height="50" relative="1" as="geometry">
            <mxPoint x="164" y="350" as="sourcePoint" />
            <mxPoint x="204" y="350" as="targetPoint" />
          </mxGeometry>
        </mxCell>
        <mxCell id="7dqATPPd59ue_RF7xPIM-40" value="" style="endArrow=none;html=1;rounded=0;strokeColor=#160160;strokeWidth=3;" parent="1" edge="1">
          <mxGeometry width="50" height="50" relative="1" as="geometry">
            <mxPoint x="204" y="350" as="sourcePoint" />
            <mxPoint x="224" y="310" as="targetPoint" />
          </mxGeometry>
        </mxCell>
        <mxCell id="7dqATPPd59ue_RF7xPIM-41" value="" style="endArrow=none;html=1;rounded=0;strokeColor=#160160;strokeWidth=3;" parent="1" edge="1">
          <mxGeometry width="50" height="50" relative="1" as="geometry">
            <mxPoint x="224" y="310" as="sourcePoint" />
            <mxPoint x="264" y="310" as="targetPoint" />
          </mxGeometry>
        </mxCell>
        <mxCell id="7dqATPPd59ue_RF7xPIM-42" value="" style="endArrow=none;html=1;rounded=0;strokeColor=#160160;strokeWidth=3;" parent="1" edge="1">
          <mxGeometry width="50" height="50" relative="1" as="geometry">
            <mxPoint x="284" y="350" as="sourcePoint" />
            <mxPoint x="264" y="310" as="targetPoint" />
          </mxGeometry>
        </mxCell>
        <mxCell id="7dqATPPd59ue_RF7xPIM-43" value="" style="endArrow=none;html=1;rounded=0;strokeColor=#160160;strokeWidth=3;" parent="1" edge="1">
          <mxGeometry width="50" height="50" relative="1" as="geometry">
            <mxPoint x="284" y="350" as="sourcePoint" />
            <mxPoint x="324" y="350" as="targetPoint" />
          </mxGeometry>
        </mxCell>
        <mxCell id="7dqATPPd59ue_RF7xPIM-44" value="" style="endArrow=none;html=1;rounded=0;strokeColor=#160160;strokeWidth=3;" parent="1" edge="1">
          <mxGeometry width="50" height="50" relative="1" as="geometry">
            <mxPoint x="324" y="350" as="sourcePoint" />
            <mxPoint x="344" y="310" as="targetPoint" />
          </mxGeometry>
        </mxCell>
        <mxCell id="7dqATPPd59ue_RF7xPIM-45" value="" style="endArrow=none;html=1;rounded=0;strokeColor=#160160;strokeWidth=3;" parent="1" edge="1">
          <mxGeometry width="50" height="50" relative="1" as="geometry">
            <mxPoint x="344" y="310" as="sourcePoint" />
            <mxPoint x="384" y="310" as="targetPoint" />
          </mxGeometry>
        </mxCell>
        <mxCell id="7dqATPPd59ue_RF7xPIM-46" value="" style="endArrow=none;html=1;rounded=0;strokeColor=#160160;strokeWidth=3;" parent="1" edge="1">
          <mxGeometry width="50" height="50" relative="1" as="geometry">
            <mxPoint x="404" y="350" as="sourcePoint" />
            <mxPoint x="384" y="310" as="targetPoint" />
          </mxGeometry>
        </mxCell>
        <mxCell id="7dqATPPd59ue_RF7xPIM-47" value="" style="endArrow=none;html=1;rounded=0;strokeColor=#160160;strokeWidth=3;" parent="1" edge="1">
          <mxGeometry width="50" height="50" relative="1" as="geometry">
            <mxPoint x="404" y="350" as="sourcePoint" />
            <mxPoint x="444" y="350" as="targetPoint" />
          </mxGeometry>
        </mxCell>
        <mxCell id="7dqATPPd59ue_RF7xPIM-48" value="" style="endArrow=none;html=1;rounded=0;strokeColor=#160160;strokeWidth=3;" parent="1" edge="1">
          <mxGeometry width="50" height="50" relative="1" as="geometry">
            <mxPoint x="444" y="350" as="sourcePoint" />
            <mxPoint x="464" y="310" as="targetPoint" />
          </mxGeometry>
        </mxCell>
        <mxCell id="7dqATPPd59ue_RF7xPIM-49" value="" style="endArrow=none;html=1;rounded=0;strokeColor=#160160;strokeWidth=3;" parent="1" edge="1">
          <mxGeometry width="50" height="50" relative="1" as="geometry">
            <mxPoint x="464" y="310" as="sourcePoint" />
            <mxPoint x="504" y="310" as="targetPoint" />
          </mxGeometry>
        </mxCell>
        <mxCell id="7dqATPPd59ue_RF7xPIM-50" value="" style="endArrow=none;html=1;rounded=0;strokeColor=#160160;strokeWidth=3;" parent="1" edge="1">
          <mxGeometry width="50" height="50" relative="1" as="geometry">
            <mxPoint x="145" y="350" as="sourcePoint" />
            <mxPoint x="165" y="310" as="targetPoint" />
          </mxGeometry>
        </mxCell>
        <mxCell id="7dqATPPd59ue_RF7xPIM-51" value="" style="endArrow=none;html=1;rounded=0;strokeColor=#160160;strokeWidth=3;" parent="1" edge="1">
          <mxGeometry width="50" height="50" relative="1" as="geometry">
            <mxPoint x="165" y="310" as="sourcePoint" />
            <mxPoint x="205" y="310" as="targetPoint" />
          </mxGeometry>
        </mxCell>
        <mxCell id="7dqATPPd59ue_RF7xPIM-52" value="" style="endArrow=none;html=1;rounded=0;strokeColor=#160160;strokeWidth=3;" parent="1" edge="1">
          <mxGeometry width="50" height="50" relative="1" as="geometry">
            <mxPoint x="225" y="350" as="sourcePoint" />
            <mxPoint x="205" y="310" as="targetPoint" />
          </mxGeometry>
        </mxCell>
        <mxCell id="7dqATPPd59ue_RF7xPIM-53" value="" style="endArrow=none;html=1;rounded=0;strokeColor=#160160;strokeWidth=3;" parent="1" edge="1">
          <mxGeometry width="50" height="50" relative="1" as="geometry">
            <mxPoint x="225" y="350" as="sourcePoint" />
            <mxPoint x="265" y="350" as="targetPoint" />
          </mxGeometry>
        </mxCell>
        <mxCell id="7dqATPPd59ue_RF7xPIM-54" value="" style="endArrow=none;html=1;rounded=0;strokeColor=#160160;strokeWidth=3;" parent="1" edge="1">
          <mxGeometry width="50" height="50" relative="1" as="geometry">
            <mxPoint x="265" y="350" as="sourcePoint" />
            <mxPoint x="285" y="310" as="targetPoint" />
          </mxGeometry>
        </mxCell>
        <mxCell id="7dqATPPd59ue_RF7xPIM-55" value="" style="endArrow=none;html=1;rounded=0;strokeColor=#160160;strokeWidth=3;" parent="1" edge="1">
          <mxGeometry width="50" height="50" relative="1" as="geometry">
            <mxPoint x="285" y="310" as="sourcePoint" />
            <mxPoint x="325" y="310" as="targetPoint" />
          </mxGeometry>
        </mxCell>
        <mxCell id="7dqATPPd59ue_RF7xPIM-56" value="" style="endArrow=none;html=1;rounded=0;strokeColor=#160160;strokeWidth=3;" parent="1" edge="1">
          <mxGeometry width="50" height="50" relative="1" as="geometry">
            <mxPoint x="345" y="350" as="sourcePoint" />
            <mxPoint x="325" y="310" as="targetPoint" />
          </mxGeometry>
        </mxCell>
        <mxCell id="7dqATPPd59ue_RF7xPIM-57" value="" style="endArrow=none;html=1;rounded=0;strokeColor=#160160;strokeWidth=3;" parent="1" edge="1">
          <mxGeometry width="50" height="50" relative="1" as="geometry">
            <mxPoint x="345" y="350" as="sourcePoint" />
            <mxPoint x="385" y="350" as="targetPoint" />
          </mxGeometry>
        </mxCell>
        <mxCell id="7dqATPPd59ue_RF7xPIM-58" value="" style="endArrow=none;html=1;rounded=0;strokeColor=#160160;strokeWidth=3;" parent="1" edge="1">
          <mxGeometry width="50" height="50" relative="1" as="geometry">
            <mxPoint x="385" y="350" as="sourcePoint" />
            <mxPoint x="405" y="310" as="targetPoint" />
          </mxGeometry>
        </mxCell>
        <mxCell id="7dqATPPd59ue_RF7xPIM-59" value="" style="endArrow=none;html=1;rounded=0;strokeColor=#160160;strokeWidth=3;" parent="1" edge="1">
          <mxGeometry width="50" height="50" relative="1" as="geometry">
            <mxPoint x="405" y="310" as="sourcePoint" />
            <mxPoint x="445" y="310" as="targetPoint" />
          </mxGeometry>
        </mxCell>
        <mxCell id="7dqATPPd59ue_RF7xPIM-60" value="" style="endArrow=none;html=1;rounded=0;strokeColor=#160160;strokeWidth=3;" parent="1" edge="1">
          <mxGeometry width="50" height="50" relative="1" as="geometry">
            <mxPoint x="465" y="350" as="sourcePoint" />
            <mxPoint x="445" y="310" as="targetPoint" />
          </mxGeometry>
        </mxCell>
        <mxCell id="7dqATPPd59ue_RF7xPIM-61" value="" style="endArrow=none;html=1;rounded=0;strokeColor=#160160;strokeWidth=3;" parent="1" edge="1">
          <mxGeometry width="50" height="50" relative="1" as="geometry">
            <mxPoint x="465" y="350" as="sourcePoint" />
            <mxPoint x="505" y="350" as="targetPoint" />
          </mxGeometry>
        </mxCell>
        <mxCell id="7dqATPPd59ue_RF7xPIM-62" value="" style="endArrow=none;html=1;rounded=0;strokeColor=#160160;strokeWidth=3;" parent="1" edge="1">
          <mxGeometry width="50" height="50" relative="1" as="geometry">
            <mxPoint x="523" y="350" as="sourcePoint" />
            <mxPoint x="503" y="310" as="targetPoint" />
          </mxGeometry>
        </mxCell>
        <mxCell id="7dqATPPd59ue_RF7xPIM-63" value="" style="endArrow=none;html=1;rounded=0;strokeColor=#160160;strokeWidth=3;" parent="1" edge="1">
          <mxGeometry width="50" height="50" relative="1" as="geometry">
            <mxPoint x="523" y="350" as="sourcePoint" />
            <mxPoint x="563" y="350" as="targetPoint" />
          </mxGeometry>
        </mxCell>
        <mxCell id="7dqATPPd59ue_RF7xPIM-64" value="" style="endArrow=none;html=1;rounded=0;strokeColor=#160160;strokeWidth=3;" parent="1" edge="1">
          <mxGeometry width="50" height="50" relative="1" as="geometry">
            <mxPoint x="563" y="350" as="sourcePoint" />
            <mxPoint x="583" y="310" as="targetPoint" />
          </mxGeometry>
        </mxCell>
        <mxCell id="7dqATPPd59ue_RF7xPIM-65" value="" style="endArrow=none;html=1;rounded=0;strokeColor=#160160;strokeWidth=3;" parent="1" edge="1">
          <mxGeometry width="50" height="50" relative="1" as="geometry">
            <mxPoint x="583" y="310" as="sourcePoint" />
            <mxPoint x="623" y="310" as="targetPoint" />
          </mxGeometry>
        </mxCell>
        <mxCell id="7dqATPPd59ue_RF7xPIM-66" value="" style="endArrow=none;html=1;rounded=0;strokeColor=#160160;strokeWidth=3;" parent="1" edge="1">
          <mxGeometry width="50" height="50" relative="1" as="geometry">
            <mxPoint x="643" y="350" as="sourcePoint" />
            <mxPoint x="623" y="310" as="targetPoint" />
          </mxGeometry>
        </mxCell>
        <mxCell id="7dqATPPd59ue_RF7xPIM-67" value="" style="endArrow=none;html=1;rounded=0;strokeColor=#160160;strokeWidth=3;" parent="1" edge="1">
          <mxGeometry width="50" height="50" relative="1" as="geometry">
            <mxPoint x="643" y="350" as="sourcePoint" />
            <mxPoint x="683" y="350" as="targetPoint" />
          </mxGeometry>
        </mxCell>
        <mxCell id="7dqATPPd59ue_RF7xPIM-68" value="" style="endArrow=none;html=1;rounded=0;strokeColor=#160160;strokeWidth=3;" parent="1" edge="1">
          <mxGeometry width="50" height="50" relative="1" as="geometry">
            <mxPoint x="683" y="350" as="sourcePoint" />
            <mxPoint x="703" y="310" as="targetPoint" />
          </mxGeometry>
        </mxCell>
        <mxCell id="7dqATPPd59ue_RF7xPIM-69" value="" style="endArrow=none;html=1;rounded=0;strokeColor=#160160;strokeWidth=3;" parent="1" edge="1">
          <mxGeometry width="50" height="50" relative="1" as="geometry">
            <mxPoint x="703" y="310" as="sourcePoint" />
            <mxPoint x="743" y="310" as="targetPoint" />
          </mxGeometry>
        </mxCell>
        <mxCell id="7dqATPPd59ue_RF7xPIM-70" value="" style="endArrow=none;html=1;rounded=0;strokeColor=#160160;strokeWidth=3;" parent="1" edge="1">
          <mxGeometry width="50" height="50" relative="1" as="geometry">
            <mxPoint x="763" y="350" as="sourcePoint" />
            <mxPoint x="743" y="310" as="targetPoint" />
          </mxGeometry>
        </mxCell>
        <mxCell id="7dqATPPd59ue_RF7xPIM-71" value="" style="endArrow=none;html=1;rounded=0;strokeColor=#160160;strokeWidth=3;" parent="1" edge="1">
          <mxGeometry width="50" height="50" relative="1" as="geometry">
            <mxPoint x="763" y="350" as="sourcePoint" />
            <mxPoint x="803" y="350" as="targetPoint" />
          </mxGeometry>
        </mxCell>
        <mxCell id="7dqATPPd59ue_RF7xPIM-72" value="" style="endArrow=none;html=1;rounded=0;strokeColor=#160160;strokeWidth=3;" parent="1" edge="1">
          <mxGeometry width="50" height="50" relative="1" as="geometry">
            <mxPoint x="803" y="350" as="sourcePoint" />
            <mxPoint x="823" y="310" as="targetPoint" />
          </mxGeometry>
        </mxCell>
        <mxCell id="7dqATPPd59ue_RF7xPIM-73" value="" style="endArrow=none;html=1;rounded=0;strokeColor=#160160;strokeWidth=3;" parent="1" edge="1">
          <mxGeometry width="50" height="50" relative="1" as="geometry">
            <mxPoint x="823" y="310" as="sourcePoint" />
            <mxPoint x="863" y="310" as="targetPoint" />
          </mxGeometry>
        </mxCell>
        <mxCell id="7dqATPPd59ue_RF7xPIM-74" value="" style="endArrow=none;html=1;rounded=0;strokeColor=#160160;strokeWidth=3;" parent="1" edge="1">
          <mxGeometry width="50" height="50" relative="1" as="geometry">
            <mxPoint x="504" y="350" as="sourcePoint" />
            <mxPoint x="524" y="310" as="targetPoint" />
          </mxGeometry>
        </mxCell>
        <mxCell id="7dqATPPd59ue_RF7xPIM-75" value="" style="endArrow=none;html=1;rounded=0;strokeColor=#160160;strokeWidth=3;" parent="1" edge="1">
          <mxGeometry width="50" height="50" relative="1" as="geometry">
            <mxPoint x="524" y="310" as="sourcePoint" />
            <mxPoint x="564" y="310" as="targetPoint" />
          </mxGeometry>
        </mxCell>
        <mxCell id="7dqATPPd59ue_RF7xPIM-76" value="" style="endArrow=none;html=1;rounded=0;strokeColor=#160160;strokeWidth=3;" parent="1" edge="1">
          <mxGeometry width="50" height="50" relative="1" as="geometry">
            <mxPoint x="584" y="350" as="sourcePoint" />
            <mxPoint x="564" y="310" as="targetPoint" />
          </mxGeometry>
        </mxCell>
        <mxCell id="7dqATPPd59ue_RF7xPIM-77" value="" style="endArrow=none;html=1;rounded=0;strokeColor=#160160;strokeWidth=3;" parent="1" edge="1">
          <mxGeometry width="50" height="50" relative="1" as="geometry">
            <mxPoint x="584" y="350" as="sourcePoint" />
            <mxPoint x="624" y="350" as="targetPoint" />
          </mxGeometry>
        </mxCell>
        <mxCell id="7dqATPPd59ue_RF7xPIM-78" value="" style="endArrow=none;html=1;rounded=0;strokeColor=#160160;strokeWidth=3;" parent="1" edge="1">
          <mxGeometry width="50" height="50" relative="1" as="geometry">
            <mxPoint x="624" y="350" as="sourcePoint" />
            <mxPoint x="644" y="310" as="targetPoint" />
          </mxGeometry>
        </mxCell>
        <mxCell id="7dqATPPd59ue_RF7xPIM-79" value="" style="endArrow=none;html=1;rounded=0;strokeColor=#160160;strokeWidth=3;" parent="1" edge="1">
          <mxGeometry width="50" height="50" relative="1" as="geometry">
            <mxPoint x="644" y="310" as="sourcePoint" />
            <mxPoint x="684" y="310" as="targetPoint" />
          </mxGeometry>
        </mxCell>
        <mxCell id="7dqATPPd59ue_RF7xPIM-80" value="" style="endArrow=none;html=1;rounded=0;strokeColor=#160160;strokeWidth=3;" parent="1" edge="1">
          <mxGeometry width="50" height="50" relative="1" as="geometry">
            <mxPoint x="704" y="350" as="sourcePoint" />
            <mxPoint x="684" y="310" as="targetPoint" />
          </mxGeometry>
        </mxCell>
        <mxCell id="7dqATPPd59ue_RF7xPIM-81" value="" style="endArrow=none;html=1;rounded=0;strokeColor=#160160;strokeWidth=3;" parent="1" edge="1">
          <mxGeometry width="50" height="50" relative="1" as="geometry">
            <mxPoint x="704" y="350" as="sourcePoint" />
            <mxPoint x="744" y="350" as="targetPoint" />
          </mxGeometry>
        </mxCell>
        <mxCell id="7dqATPPd59ue_RF7xPIM-82" value="" style="endArrow=none;html=1;rounded=0;strokeColor=#160160;strokeWidth=3;" parent="1" edge="1">
          <mxGeometry width="50" height="50" relative="1" as="geometry">
            <mxPoint x="744" y="350" as="sourcePoint" />
            <mxPoint x="764" y="310" as="targetPoint" />
          </mxGeometry>
        </mxCell>
        <mxCell id="7dqATPPd59ue_RF7xPIM-83" value="" style="endArrow=none;html=1;rounded=0;strokeColor=#160160;strokeWidth=3;" parent="1" edge="1">
          <mxGeometry width="50" height="50" relative="1" as="geometry">
            <mxPoint x="764" y="310" as="sourcePoint" />
            <mxPoint x="804" y="310" as="targetPoint" />
          </mxGeometry>
        </mxCell>
        <mxCell id="7dqATPPd59ue_RF7xPIM-84" value="" style="endArrow=none;html=1;rounded=0;strokeColor=#160160;strokeWidth=3;" parent="1" edge="1">
          <mxGeometry width="50" height="50" relative="1" as="geometry">
            <mxPoint x="824" y="350" as="sourcePoint" />
            <mxPoint x="804" y="310" as="targetPoint" />
          </mxGeometry>
        </mxCell>
        <mxCell id="7dqATPPd59ue_RF7xPIM-85" value="" style="endArrow=none;html=1;rounded=0;strokeColor=#160160;strokeWidth=3;" parent="1" edge="1">
          <mxGeometry width="50" height="50" relative="1" as="geometry">
            <mxPoint x="824" y="350" as="sourcePoint" />
            <mxPoint x="864" y="350" as="targetPoint" />
          </mxGeometry>
        </mxCell>
        <mxCell id="7dqATPPd59ue_RF7xPIM-86" value="" style="endArrow=none;html=1;rounded=0;strokeColor=#0a0a0a;strokeWidth=3;" parent="1" edge="1">
          <mxGeometry width="50" height="50" relative="1" as="geometry">
            <mxPoint x="675" y="250" as="sourcePoint" />
            <mxPoint x="715" y="250" as="targetPoint" />
          </mxGeometry>
        </mxCell>
        <mxCell id="7dqATPPd59ue_RF7xPIM-87" value="" style="endArrow=none;html=1;rounded=0;strokeColor=#0a0a0a;strokeWidth=3;" parent="1" edge="1">
          <mxGeometry width="50" height="50" relative="1" as="geometry">
            <mxPoint x="735" y="290" as="sourcePoint" />
            <mxPoint x="715" y="250" as="targetPoint" />
          </mxGeometry>
        </mxCell>
        <mxCell id="7dqATPPd59ue_RF7xPIM-88" value="" style="endArrow=none;html=1;rounded=0;strokeColor=#0a0a0a;strokeWidth=3;" parent="1" edge="1">
          <mxGeometry width="50" height="50" relative="1" as="geometry">
            <mxPoint x="735" y="290" as="sourcePoint" />
            <mxPoint x="775" y="290" as="targetPoint" />
          </mxGeometry>
        </mxCell>
        <mxCell id="7dqATPPd59ue_RF7xPIM-89" value="" style="endArrow=classic;html=1;rounded=0;strokeColor=#0a0a0a;strokeWidth=3;endFill=1;" parent="1" edge="1">
          <mxGeometry width="50" height="50" relative="1" as="geometry">
            <mxPoint x="775" y="290" as="sourcePoint" />
            <mxPoint x="795" y="250" as="targetPoint" />
          </mxGeometry>
        </mxCell>
        <mxCell id="7dqATPPd59ue_RF7xPIM-90" value="" style="endArrow=none;html=1;rounded=0;strokeColor=#0a0a0a;strokeWidth=3;" parent="1" edge="1">
          <mxGeometry width="50" height="50" relative="1" as="geometry">
            <mxPoint x="795" y="250" as="sourcePoint" />
            <mxPoint x="835" y="250" as="targetPoint" />
          </mxGeometry>
        </mxCell>
        <mxCell id="7dqATPPd59ue_RF7xPIM-91" value="" style="endArrow=none;html=1;rounded=0;strokeColor=#0a0a0a;strokeWidth=3;" parent="1" edge="1">
          <mxGeometry width="50" height="50" relative="1" as="geometry">
            <mxPoint x="855" y="290" as="sourcePoint" />
            <mxPoint x="835" y="250" as="targetPoint" />
          </mxGeometry>
        </mxCell>
        <mxCell id="7dqATPPd59ue_RF7xPIM-92" value="" style="endArrow=none;html=1;rounded=0;strokeColor=#0a0a0a;strokeWidth=3;" parent="1" edge="1">
          <mxGeometry width="50" height="50" relative="1" as="geometry">
            <mxPoint x="855" y="290" as="sourcePoint" />
            <mxPoint x="895" y="290" as="targetPoint" />
          </mxGeometry>
        </mxCell>
        <mxCell id="7dqATPPd59ue_RF7xPIM-93" value="" style="endArrow=classic;html=1;rounded=0;strokeColor=#0a0a0a;strokeWidth=3;endFill=1;" parent="1" edge="1">
          <mxGeometry width="50" height="50" relative="1" as="geometry">
            <mxPoint x="895" y="290" as="sourcePoint" />
            <mxPoint x="915" y="250" as="targetPoint" />
          </mxGeometry>
        </mxCell>
        <mxCell id="7dqATPPd59ue_RF7xPIM-94" value="" style="endArrow=none;html=1;rounded=0;strokeColor=#0a0a0a;strokeWidth=3;" parent="1" edge="1">
          <mxGeometry width="50" height="50" relative="1" as="geometry">
            <mxPoint x="915" y="250" as="sourcePoint" />
            <mxPoint x="955" y="250" as="targetPoint" />
          </mxGeometry>
        </mxCell>
        <mxCell id="7dqATPPd59ue_RF7xPIM-95" value="" style="endArrow=none;html=1;rounded=0;strokeColor=#0a0a0a;strokeWidth=3;" parent="1" edge="1">
          <mxGeometry width="50" height="50" relative="1" as="geometry">
            <mxPoint x="975" y="290" as="sourcePoint" />
            <mxPoint x="955" y="250" as="targetPoint" />
          </mxGeometry>
        </mxCell>
        <mxCell id="7dqATPPd59ue_RF7xPIM-96" value="" style="endArrow=none;html=1;rounded=0;strokeColor=#0a0a0a;strokeWidth=3;" parent="1" edge="1">
          <mxGeometry width="50" height="50" relative="1" as="geometry">
            <mxPoint x="975" y="290" as="sourcePoint" />
            <mxPoint x="1015" y="290" as="targetPoint" />
          </mxGeometry>
        </mxCell>
        <mxCell id="7dqATPPd59ue_RF7xPIM-97" value="" style="endArrow=none;html=1;rounded=0;strokeColor=#0a0a0a;strokeWidth=3;dashed=1;" parent="1" edge="1">
          <mxGeometry width="50" height="50" relative="1" as="geometry">
            <mxPoint x="676" y="290" as="sourcePoint" />
            <mxPoint x="716" y="290" as="targetPoint" />
          </mxGeometry>
        </mxCell>
        <mxCell id="7dqATPPd59ue_RF7xPIM-98" value="" style="endArrow=none;html=1;rounded=0;strokeColor=#0a0a0a;strokeWidth=3;dashed=1;" parent="1" edge="1">
          <mxGeometry width="50" height="50" relative="1" as="geometry">
            <mxPoint x="716" y="290" as="sourcePoint" />
            <mxPoint x="736" y="250" as="targetPoint" />
          </mxGeometry>
        </mxCell>
        <mxCell id="7dqATPPd59ue_RF7xPIM-99" value="" style="endArrow=none;html=1;rounded=0;strokeColor=#0a0a0a;strokeWidth=3;dashed=1;" parent="1" edge="1">
          <mxGeometry width="50" height="50" relative="1" as="geometry">
            <mxPoint x="736" y="250" as="sourcePoint" />
            <mxPoint x="776" y="250" as="targetPoint" />
          </mxGeometry>
        </mxCell>
        <mxCell id="7dqATPPd59ue_RF7xPIM-100" value="" style="endArrow=none;html=1;rounded=0;strokeColor=#0a0a0a;strokeWidth=3;dashed=1;" parent="1" edge="1">
          <mxGeometry width="50" height="50" relative="1" as="geometry">
            <mxPoint x="796" y="290" as="sourcePoint" />
            <mxPoint x="776" y="250" as="targetPoint" />
          </mxGeometry>
        </mxCell>
        <mxCell id="7dqATPPd59ue_RF7xPIM-101" value="" style="endArrow=none;html=1;rounded=0;strokeColor=#0a0a0a;strokeWidth=3;dashed=1;" parent="1" edge="1">
          <mxGeometry width="50" height="50" relative="1" as="geometry">
            <mxPoint x="796" y="290" as="sourcePoint" />
            <mxPoint x="836" y="290" as="targetPoint" />
          </mxGeometry>
        </mxCell>
        <mxCell id="7dqATPPd59ue_RF7xPIM-102" value="" style="endArrow=none;html=1;rounded=0;strokeColor=#0a0a0a;strokeWidth=3;dashed=1;" parent="1" edge="1">
          <mxGeometry width="50" height="50" relative="1" as="geometry">
            <mxPoint x="836" y="290" as="sourcePoint" />
            <mxPoint x="856" y="250" as="targetPoint" />
          </mxGeometry>
        </mxCell>
        <mxCell id="7dqATPPd59ue_RF7xPIM-103" value="" style="endArrow=none;html=1;rounded=0;strokeColor=#0a0a0a;strokeWidth=3;dashed=1;" parent="1" edge="1">
          <mxGeometry width="50" height="50" relative="1" as="geometry">
            <mxPoint x="856" y="250" as="sourcePoint" />
            <mxPoint x="896" y="250" as="targetPoint" />
          </mxGeometry>
        </mxCell>
        <mxCell id="7dqATPPd59ue_RF7xPIM-104" value="" style="endArrow=none;html=1;rounded=0;strokeColor=#0a0a0a;strokeWidth=3;dashed=1;" parent="1" edge="1">
          <mxGeometry width="50" height="50" relative="1" as="geometry">
            <mxPoint x="916" y="290" as="sourcePoint" />
            <mxPoint x="896" y="250" as="targetPoint" />
          </mxGeometry>
        </mxCell>
        <mxCell id="7dqATPPd59ue_RF7xPIM-105" value="" style="endArrow=none;html=1;rounded=0;strokeColor=#0a0a0a;strokeWidth=3;dashed=1;" parent="1" edge="1">
          <mxGeometry width="50" height="50" relative="1" as="geometry">
            <mxPoint x="916" y="290" as="sourcePoint" />
            <mxPoint x="956" y="290" as="targetPoint" />
          </mxGeometry>
        </mxCell>
        <mxCell id="7dqATPPd59ue_RF7xPIM-106" value="" style="endArrow=none;html=1;rounded=0;strokeColor=#0a0a0a;strokeWidth=3;dashed=1;" parent="1" edge="1">
          <mxGeometry width="50" height="50" relative="1" as="geometry">
            <mxPoint x="956" y="290" as="sourcePoint" />
            <mxPoint x="976" y="250" as="targetPoint" />
          </mxGeometry>
        </mxCell>
        <mxCell id="7dqATPPd59ue_RF7xPIM-107" value="" style="endArrow=none;html=1;rounded=0;strokeColor=#0a0a0a;strokeWidth=3;dashed=1;" parent="1" edge="1">
          <mxGeometry width="50" height="50" relative="1" as="geometry">
            <mxPoint x="976" y="250" as="sourcePoint" />
            <mxPoint x="1016" y="250" as="targetPoint" />
          </mxGeometry>
        </mxCell>
        <mxCell id="7dqATPPd59ue_RF7xPIM-108" value="DQS_c" style="text;html=1;align=center;verticalAlign=middle;whiteSpace=wrap;rounded=0;fontStyle=1" parent="1" vertex="1">
          <mxGeometry x="75" y="240" width="60" height="20" as="geometry" />
        </mxCell>
        <mxCell id="7dqATPPd59ue_RF7xPIM-109" value="DQS_t" style="text;html=1;align=center;verticalAlign=middle;whiteSpace=wrap;rounded=0;fontStyle=1" parent="1" vertex="1">
          <mxGeometry x="75" y="280" width="60" height="20" as="geometry" />
        </mxCell>
        <mxCell id="7dqATPPd59ue_RF7xPIM-110" value="DQ" style="text;html=1;align=center;verticalAlign=middle;whiteSpace=wrap;rounded=0;fontColor=#160160;fontStyle=1" parent="1" vertex="1">
          <mxGeometry x="75" y="320" width="60" height="20" as="geometry" />
        </mxCell>
        <mxCell id="7dqATPPd59ue_RF7xPIM-111" value="" style="endArrow=none;dashed=1;html=1;rounded=0;" parent="1" source="7dqATPPd59ue_RF7xPIM-262" edge="1">
          <mxGeometry width="50" height="50" relative="1" as="geometry">
            <mxPoint x="185" y="850" as="sourcePoint" />
            <mxPoint x="185" y="210" as="targetPoint" />
          </mxGeometry>
        </mxCell>
        <mxCell id="7dqATPPd59ue_RF7xPIM-112" value="" style="endArrow=none;dashed=1;html=1;rounded=0;" parent="1" source="7dqATPPd59ue_RF7xPIM-264" edge="1">
          <mxGeometry width="50" height="50" relative="1" as="geometry">
            <mxPoint x="245" y="850" as="sourcePoint" />
            <mxPoint x="245" y="210" as="targetPoint" />
          </mxGeometry>
        </mxCell>
        <mxCell id="7dqATPPd59ue_RF7xPIM-113" value="" style="endArrow=none;dashed=1;html=1;rounded=0;" parent="1" source="7dqATPPd59ue_RF7xPIM-278" edge="1">
          <mxGeometry width="50" height="50" relative="1" as="geometry">
            <mxPoint x="305" y="850" as="sourcePoint" />
            <mxPoint x="305" y="210" as="targetPoint" />
          </mxGeometry>
        </mxCell>
        <mxCell id="7dqATPPd59ue_RF7xPIM-114" value="" style="endArrow=none;dashed=1;html=1;rounded=0;" parent="1" source="7dqATPPd59ue_RF7xPIM-280" edge="1">
          <mxGeometry width="50" height="50" relative="1" as="geometry">
            <mxPoint x="365" y="850" as="sourcePoint" />
            <mxPoint x="365" y="210" as="targetPoint" />
          </mxGeometry>
        </mxCell>
        <mxCell id="7dqATPPd59ue_RF7xPIM-115" value="" style="endArrow=none;dashed=1;html=1;rounded=0;" parent="1" edge="1">
          <mxGeometry width="50" height="50" relative="1" as="geometry">
            <mxPoint x="425" y="850" as="sourcePoint" />
            <mxPoint x="425" y="200" as="targetPoint" />
          </mxGeometry>
        </mxCell>
        <mxCell id="7dqATPPd59ue_RF7xPIM-116" value="" style="endArrow=none;dashed=1;html=1;rounded=0;" parent="1" edge="1">
          <mxGeometry width="50" height="50" relative="1" as="geometry">
            <mxPoint x="485" y="850" as="sourcePoint" />
            <mxPoint x="485" y="200" as="targetPoint" />
          </mxGeometry>
        </mxCell>
        <mxCell id="7dqATPPd59ue_RF7xPIM-117" value="" style="endArrow=none;dashed=1;html=1;rounded=0;" parent="1" edge="1">
          <mxGeometry width="50" height="50" relative="1" as="geometry">
            <mxPoint x="545" y="840" as="sourcePoint" />
            <mxPoint x="545" y="200" as="targetPoint" />
          </mxGeometry>
        </mxCell>
        <mxCell id="7dqATPPd59ue_RF7xPIM-118" value="" style="endArrow=none;dashed=1;html=1;rounded=0;" parent="1" source="7dqATPPd59ue_RF7xPIM-285" edge="1">
          <mxGeometry width="50" height="50" relative="1" as="geometry">
            <mxPoint x="605" y="850" as="sourcePoint" />
            <mxPoint x="605" y="200" as="targetPoint" />
          </mxGeometry>
        </mxCell>
        <mxCell id="7dqATPPd59ue_RF7xPIM-119" value="" style="endArrow=none;dashed=1;html=1;rounded=0;" parent="1" source="7dqATPPd59ue_RF7xPIM-287" edge="1">
          <mxGeometry width="50" height="50" relative="1" as="geometry">
            <mxPoint x="665" y="850" as="sourcePoint" />
            <mxPoint x="665" y="200" as="targetPoint" />
          </mxGeometry>
        </mxCell>
        <mxCell id="7dqATPPd59ue_RF7xPIM-120" value="" style="endArrow=none;dashed=1;html=1;rounded=0;" parent="1" source="7dqATPPd59ue_RF7xPIM-289" edge="1">
          <mxGeometry width="50" height="50" relative="1" as="geometry">
            <mxPoint x="725" y="850" as="sourcePoint" />
            <mxPoint x="725" y="200" as="targetPoint" />
          </mxGeometry>
        </mxCell>
        <mxCell id="7dqATPPd59ue_RF7xPIM-121" value="" style="endArrow=none;dashed=1;html=1;rounded=0;" parent="1" edge="1">
          <mxGeometry width="50" height="50" relative="1" as="geometry">
            <mxPoint x="785" y="850" as="sourcePoint" />
            <mxPoint x="785" y="200" as="targetPoint" />
          </mxGeometry>
        </mxCell>
        <mxCell id="7dqATPPd59ue_RF7xPIM-122" value="" style="endArrow=none;dashed=1;html=1;rounded=0;" parent="1" edge="1">
          <mxGeometry width="50" height="50" relative="1" as="geometry">
            <mxPoint x="845" y="850" as="sourcePoint" />
            <mxPoint x="845" y="200" as="targetPoint" />
          </mxGeometry>
        </mxCell>
        <mxCell id="7dqATPPd59ue_RF7xPIM-123" value="" style="endArrow=none;html=1;rounded=0;strokeColor=#160160;strokeWidth=3;" parent="1" edge="1">
          <mxGeometry width="50" height="50" relative="1" as="geometry">
            <mxPoint x="862" y="349.71000000000004" as="sourcePoint" />
            <mxPoint x="882" y="309.71000000000004" as="targetPoint" />
          </mxGeometry>
        </mxCell>
        <mxCell id="7dqATPPd59ue_RF7xPIM-124" value="" style="endArrow=none;html=1;rounded=0;strokeColor=#160160;strokeWidth=3;" parent="1" edge="1">
          <mxGeometry width="50" height="50" relative="1" as="geometry">
            <mxPoint x="882" y="309.71000000000004" as="sourcePoint" />
            <mxPoint x="922" y="309.71000000000004" as="targetPoint" />
          </mxGeometry>
        </mxCell>
        <mxCell id="7dqATPPd59ue_RF7xPIM-125" value="" style="endArrow=none;html=1;rounded=0;strokeColor=#160160;strokeWidth=3;" parent="1" edge="1">
          <mxGeometry width="50" height="50" relative="1" as="geometry">
            <mxPoint x="942" y="349.71000000000004" as="sourcePoint" />
            <mxPoint x="922" y="309.71000000000004" as="targetPoint" />
          </mxGeometry>
        </mxCell>
        <mxCell id="7dqATPPd59ue_RF7xPIM-126" value="" style="endArrow=none;html=1;rounded=0;strokeColor=#160160;strokeWidth=3;" parent="1" edge="1">
          <mxGeometry width="50" height="50" relative="1" as="geometry">
            <mxPoint x="942" y="349.71000000000004" as="sourcePoint" />
            <mxPoint x="982" y="349.71000000000004" as="targetPoint" />
          </mxGeometry>
        </mxCell>
        <mxCell id="7dqATPPd59ue_RF7xPIM-127" value="" style="endArrow=none;html=1;rounded=0;strokeColor=#160160;strokeWidth=3;" parent="1" edge="1">
          <mxGeometry width="50" height="50" relative="1" as="geometry">
            <mxPoint x="982" y="349.71000000000004" as="sourcePoint" />
            <mxPoint x="1002" y="309.71000000000004" as="targetPoint" />
          </mxGeometry>
        </mxCell>
        <mxCell id="7dqATPPd59ue_RF7xPIM-128" value="" style="endArrow=none;html=1;rounded=0;strokeColor=#160160;strokeWidth=3;" parent="1" edge="1">
          <mxGeometry width="50" height="50" relative="1" as="geometry">
            <mxPoint x="883" y="349.71000000000004" as="sourcePoint" />
            <mxPoint x="863" y="309.71000000000004" as="targetPoint" />
          </mxGeometry>
        </mxCell>
        <mxCell id="7dqATPPd59ue_RF7xPIM-129" value="" style="endArrow=none;html=1;rounded=0;strokeColor=#160160;strokeWidth=3;" parent="1" edge="1">
          <mxGeometry width="50" height="50" relative="1" as="geometry">
            <mxPoint x="883" y="349.71000000000004" as="sourcePoint" />
            <mxPoint x="923" y="349.71000000000004" as="targetPoint" />
          </mxGeometry>
        </mxCell>
        <mxCell id="7dqATPPd59ue_RF7xPIM-130" value="" style="endArrow=none;html=1;rounded=0;strokeColor=#160160;strokeWidth=3;" parent="1" edge="1">
          <mxGeometry width="50" height="50" relative="1" as="geometry">
            <mxPoint x="923" y="349.71000000000004" as="sourcePoint" />
            <mxPoint x="943" y="309.71000000000004" as="targetPoint" />
          </mxGeometry>
        </mxCell>
        <mxCell id="7dqATPPd59ue_RF7xPIM-131" value="" style="endArrow=none;html=1;rounded=0;strokeColor=#160160;strokeWidth=3;" parent="1" edge="1">
          <mxGeometry width="50" height="50" relative="1" as="geometry">
            <mxPoint x="943" y="309.71000000000004" as="sourcePoint" />
            <mxPoint x="983" y="309.71000000000004" as="targetPoint" />
          </mxGeometry>
        </mxCell>
        <mxCell id="7dqATPPd59ue_RF7xPIM-132" value="" style="endArrow=none;html=1;rounded=0;strokeColor=#160160;strokeWidth=3;" parent="1" edge="1">
          <mxGeometry width="50" height="50" relative="1" as="geometry">
            <mxPoint x="1003" y="349.71000000000004" as="sourcePoint" />
            <mxPoint x="983" y="309.71000000000004" as="targetPoint" />
          </mxGeometry>
        </mxCell>
        <mxCell id="7dqATPPd59ue_RF7xPIM-133" value="" style="endArrow=none;html=1;rounded=0;strokeColor=#f5a905;strokeWidth=3;" parent="1" edge="1">
          <mxGeometry width="50" height="50" relative="1" as="geometry">
            <mxPoint x="175" y="410" as="sourcePoint" />
            <mxPoint x="195" y="370" as="targetPoint" />
          </mxGeometry>
        </mxCell>
        <mxCell id="7dqATPPd59ue_RF7xPIM-134" value="" style="endArrow=none;html=1;rounded=0;strokeColor=#f5a905;strokeWidth=3;" parent="1" edge="1">
          <mxGeometry width="50" height="50" relative="1" as="geometry">
            <mxPoint x="195" y="370" as="sourcePoint" />
            <mxPoint x="295" y="370" as="targetPoint" />
          </mxGeometry>
        </mxCell>
        <mxCell id="7dqATPPd59ue_RF7xPIM-135" value="" style="endArrow=none;html=1;rounded=0;strokeColor=#f5a905;strokeWidth=3;" parent="1" edge="1">
          <mxGeometry width="50" height="50" relative="1" as="geometry">
            <mxPoint x="315" y="410" as="sourcePoint" />
            <mxPoint x="295" y="370" as="targetPoint" />
          </mxGeometry>
        </mxCell>
        <mxCell id="7dqATPPd59ue_RF7xPIM-136" value="" style="endArrow=none;html=1;rounded=0;strokeColor=#f5a905;strokeWidth=3;" parent="1" edge="1">
          <mxGeometry width="50" height="50" relative="1" as="geometry">
            <mxPoint x="315" y="410" as="sourcePoint" />
            <mxPoint x="415" y="410" as="targetPoint" />
          </mxGeometry>
        </mxCell>
        <mxCell id="7dqATPPd59ue_RF7xPIM-137" value="" style="endArrow=none;html=1;rounded=0;strokeColor=#f5a905;strokeWidth=3;" parent="1" edge="1">
          <mxGeometry width="50" height="50" relative="1" as="geometry">
            <mxPoint x="415" y="410" as="sourcePoint" />
            <mxPoint x="435" y="370" as="targetPoint" />
          </mxGeometry>
        </mxCell>
        <mxCell id="7dqATPPd59ue_RF7xPIM-138" value="" style="endArrow=none;html=1;rounded=0;strokeColor=#f5a905;strokeWidth=3;" parent="1" edge="1">
          <mxGeometry width="50" height="50" relative="1" as="geometry">
            <mxPoint x="435" y="370" as="sourcePoint" />
            <mxPoint x="535" y="370" as="targetPoint" />
          </mxGeometry>
        </mxCell>
        <mxCell id="7dqATPPd59ue_RF7xPIM-139" value="" style="endArrow=none;html=1;rounded=0;strokeColor=#f5a905;strokeWidth=3;" parent="1" edge="1">
          <mxGeometry width="50" height="50" relative="1" as="geometry">
            <mxPoint x="555" y="410" as="sourcePoint" />
            <mxPoint x="535" y="370" as="targetPoint" />
          </mxGeometry>
        </mxCell>
        <mxCell id="7dqATPPd59ue_RF7xPIM-140" value="" style="endArrow=none;html=1;rounded=0;strokeColor=#f5a905;strokeWidth=3;" parent="1" edge="1">
          <mxGeometry width="50" height="50" relative="1" as="geometry">
            <mxPoint x="555" y="410" as="sourcePoint" />
            <mxPoint x="655" y="410" as="targetPoint" />
          </mxGeometry>
        </mxCell>
        <mxCell id="7dqATPPd59ue_RF7xPIM-141" value="" style="endArrow=none;html=1;rounded=0;strokeColor=#f5a905;strokeWidth=3;" parent="1" edge="1">
          <mxGeometry width="50" height="50" relative="1" as="geometry">
            <mxPoint x="655" y="410" as="sourcePoint" />
            <mxPoint x="675" y="370" as="targetPoint" />
          </mxGeometry>
        </mxCell>
        <mxCell id="7dqATPPd59ue_RF7xPIM-142" value="" style="endArrow=none;html=1;rounded=0;strokeColor=#f5a905;strokeWidth=3;" parent="1" edge="1">
          <mxGeometry width="50" height="50" relative="1" as="geometry">
            <mxPoint x="675" y="370" as="sourcePoint" />
            <mxPoint x="775" y="370" as="targetPoint" />
          </mxGeometry>
        </mxCell>
        <mxCell id="7dqATPPd59ue_RF7xPIM-143" value="" style="endArrow=none;html=1;rounded=0;strokeColor=#f5a905;strokeWidth=3;" parent="1" edge="1">
          <mxGeometry width="50" height="50" relative="1" as="geometry">
            <mxPoint x="795" y="410" as="sourcePoint" />
            <mxPoint x="775" y="370" as="targetPoint" />
          </mxGeometry>
        </mxCell>
        <mxCell id="7dqATPPd59ue_RF7xPIM-144" value="" style="endArrow=none;html=1;rounded=0;strokeColor=#f5a905;strokeWidth=3;" parent="1" edge="1">
          <mxGeometry width="50" height="50" relative="1" as="geometry">
            <mxPoint x="795" y="410" as="sourcePoint" />
            <mxPoint x="895" y="410" as="targetPoint" />
          </mxGeometry>
        </mxCell>
        <mxCell id="7dqATPPd59ue_RF7xPIM-145" value="" style="endArrow=none;html=1;rounded=0;strokeColor=#f5a905;strokeWidth=3;" parent="1" edge="1">
          <mxGeometry width="50" height="50" relative="1" as="geometry">
            <mxPoint x="145" y="410" as="sourcePoint" />
            <mxPoint x="175" y="410" as="targetPoint" />
          </mxGeometry>
        </mxCell>
        <mxCell id="7dqATPPd59ue_RF7xPIM-146" value="" style="endArrow=none;html=1;rounded=0;strokeColor=#f5a905;strokeWidth=3;" parent="1" edge="1">
          <mxGeometry width="50" height="50" relative="1" as="geometry">
            <mxPoint x="895" y="410" as="sourcePoint" />
            <mxPoint x="915" y="370" as="targetPoint" />
          </mxGeometry>
        </mxCell>
        <mxCell id="7dqATPPd59ue_RF7xPIM-147" value="" style="endArrow=none;html=1;rounded=0;strokeColor=#f5a905;strokeWidth=3;" parent="1" edge="1">
          <mxGeometry width="50" height="50" relative="1" as="geometry">
            <mxPoint x="915" y="370" as="sourcePoint" />
            <mxPoint x="1025" y="370" as="targetPoint" />
          </mxGeometry>
        </mxCell>
        <mxCell id="7dqATPPd59ue_RF7xPIM-148" value="" style="endArrow=none;html=1;rounded=0;strokeColor=#419806;strokeWidth=3;" parent="1" edge="1">
          <mxGeometry width="50" height="50" relative="1" as="geometry">
            <mxPoint x="235" y="470" as="sourcePoint" />
            <mxPoint x="255" y="430" as="targetPoint" />
          </mxGeometry>
        </mxCell>
        <mxCell id="7dqATPPd59ue_RF7xPIM-149" value="" style="endArrow=none;html=1;rounded=0;strokeColor=#419806;strokeWidth=3;" parent="1" edge="1">
          <mxGeometry width="50" height="50" relative="1" as="geometry">
            <mxPoint x="255" y="430" as="sourcePoint" />
            <mxPoint x="355" y="430" as="targetPoint" />
          </mxGeometry>
        </mxCell>
        <mxCell id="7dqATPPd59ue_RF7xPIM-150" value="" style="endArrow=none;html=1;rounded=0;strokeColor=#419806;strokeWidth=3;" parent="1" edge="1">
          <mxGeometry width="50" height="50" relative="1" as="geometry">
            <mxPoint x="375" y="470" as="sourcePoint" />
            <mxPoint x="355" y="430" as="targetPoint" />
          </mxGeometry>
        </mxCell>
        <mxCell id="7dqATPPd59ue_RF7xPIM-151" value="" style="endArrow=none;html=1;rounded=0;strokeColor=#419806;strokeWidth=3;" parent="1" edge="1">
          <mxGeometry width="50" height="50" relative="1" as="geometry">
            <mxPoint x="375" y="470" as="sourcePoint" />
            <mxPoint x="475" y="470" as="targetPoint" />
          </mxGeometry>
        </mxCell>
        <mxCell id="7dqATPPd59ue_RF7xPIM-152" value="" style="endArrow=none;html=1;rounded=0;strokeColor=#419806;strokeWidth=3;" parent="1" edge="1">
          <mxGeometry width="50" height="50" relative="1" as="geometry">
            <mxPoint x="475" y="470" as="sourcePoint" />
            <mxPoint x="495" y="430" as="targetPoint" />
          </mxGeometry>
        </mxCell>
        <mxCell id="7dqATPPd59ue_RF7xPIM-153" value="" style="endArrow=none;html=1;rounded=0;strokeColor=#419806;strokeWidth=3;" parent="1" edge="1">
          <mxGeometry width="50" height="50" relative="1" as="geometry">
            <mxPoint x="495" y="430" as="sourcePoint" />
            <mxPoint x="595" y="430" as="targetPoint" />
          </mxGeometry>
        </mxCell>
        <mxCell id="7dqATPPd59ue_RF7xPIM-154" value="" style="endArrow=none;html=1;rounded=0;strokeColor=#419806;strokeWidth=3;" parent="1" edge="1">
          <mxGeometry width="50" height="50" relative="1" as="geometry">
            <mxPoint x="615" y="470" as="sourcePoint" />
            <mxPoint x="595" y="430" as="targetPoint" />
          </mxGeometry>
        </mxCell>
        <mxCell id="7dqATPPd59ue_RF7xPIM-155" value="" style="endArrow=none;html=1;rounded=0;strokeColor=#419806;strokeWidth=3;" parent="1" edge="1">
          <mxGeometry width="50" height="50" relative="1" as="geometry">
            <mxPoint x="615" y="470" as="sourcePoint" />
            <mxPoint x="715" y="470" as="targetPoint" />
          </mxGeometry>
        </mxCell>
        <mxCell id="7dqATPPd59ue_RF7xPIM-156" value="" style="endArrow=none;html=1;rounded=0;strokeColor=#419806;strokeWidth=3;" parent="1" edge="1">
          <mxGeometry width="50" height="50" relative="1" as="geometry">
            <mxPoint x="715" y="470" as="sourcePoint" />
            <mxPoint x="735" y="430" as="targetPoint" />
          </mxGeometry>
        </mxCell>
        <mxCell id="7dqATPPd59ue_RF7xPIM-157" value="" style="endArrow=none;html=1;rounded=0;strokeColor=#419806;strokeWidth=3;" parent="1" edge="1">
          <mxGeometry width="50" height="50" relative="1" as="geometry">
            <mxPoint x="735" y="430" as="sourcePoint" />
            <mxPoint x="835" y="430" as="targetPoint" />
          </mxGeometry>
        </mxCell>
        <mxCell id="7dqATPPd59ue_RF7xPIM-158" value="" style="endArrow=none;html=1;rounded=0;strokeColor=#419806;strokeWidth=3;" parent="1" edge="1">
          <mxGeometry width="50" height="50" relative="1" as="geometry">
            <mxPoint x="855" y="470" as="sourcePoint" />
            <mxPoint x="835" y="430" as="targetPoint" />
          </mxGeometry>
        </mxCell>
        <mxCell id="7dqATPPd59ue_RF7xPIM-159" value="" style="endArrow=none;html=1;rounded=0;strokeColor=#419806;strokeWidth=3;" parent="1" edge="1">
          <mxGeometry width="50" height="50" relative="1" as="geometry">
            <mxPoint x="855" y="470" as="sourcePoint" />
            <mxPoint x="955" y="470" as="targetPoint" />
          </mxGeometry>
        </mxCell>
        <mxCell id="7dqATPPd59ue_RF7xPIM-160" value="" style="endArrow=none;html=1;rounded=0;strokeColor=#419806;strokeWidth=3;" parent="1" edge="1">
          <mxGeometry width="50" height="50" relative="1" as="geometry">
            <mxPoint x="955" y="470" as="sourcePoint" />
            <mxPoint x="975" y="430" as="targetPoint" />
          </mxGeometry>
        </mxCell>
        <mxCell id="7dqATPPd59ue_RF7xPIM-161" value="" style="endArrow=none;html=1;rounded=0;strokeColor=#419806;strokeWidth=3;" parent="1" edge="1">
          <mxGeometry width="50" height="50" relative="1" as="geometry">
            <mxPoint x="975" y="430" as="sourcePoint" />
            <mxPoint x="1025" y="430" as="targetPoint" />
          </mxGeometry>
        </mxCell>
        <mxCell id="7dqATPPd59ue_RF7xPIM-162" value="" style="endArrow=none;html=1;rounded=0;strokeColor=#068aef;strokeWidth=3;" parent="1" edge="1">
          <mxGeometry width="50" height="50" relative="1" as="geometry">
            <mxPoint x="295" y="530" as="sourcePoint" />
            <mxPoint x="315" y="490" as="targetPoint" />
          </mxGeometry>
        </mxCell>
        <mxCell id="7dqATPPd59ue_RF7xPIM-163" value="" style="endArrow=none;html=1;rounded=0;strokeColor=#068aef;strokeWidth=3;" parent="1" edge="1">
          <mxGeometry width="50" height="50" relative="1" as="geometry">
            <mxPoint x="315" y="490" as="sourcePoint" />
            <mxPoint x="415" y="490" as="targetPoint" />
          </mxGeometry>
        </mxCell>
        <mxCell id="7dqATPPd59ue_RF7xPIM-164" value="" style="endArrow=none;html=1;rounded=0;strokeColor=#068aef;strokeWidth=3;" parent="1" edge="1">
          <mxGeometry width="50" height="50" relative="1" as="geometry">
            <mxPoint x="435" y="530" as="sourcePoint" />
            <mxPoint x="415" y="490" as="targetPoint" />
          </mxGeometry>
        </mxCell>
        <mxCell id="7dqATPPd59ue_RF7xPIM-165" value="" style="endArrow=none;html=1;rounded=0;strokeColor=#068aef;strokeWidth=3;" parent="1" edge="1">
          <mxGeometry width="50" height="50" relative="1" as="geometry">
            <mxPoint x="435" y="530" as="sourcePoint" />
            <mxPoint x="535" y="530" as="targetPoint" />
          </mxGeometry>
        </mxCell>
        <mxCell id="7dqATPPd59ue_RF7xPIM-166" value="" style="endArrow=none;html=1;rounded=0;strokeColor=#068aef;strokeWidth=3;" parent="1" edge="1">
          <mxGeometry width="50" height="50" relative="1" as="geometry">
            <mxPoint x="535" y="530" as="sourcePoint" />
            <mxPoint x="555" y="490" as="targetPoint" />
          </mxGeometry>
        </mxCell>
        <mxCell id="7dqATPPd59ue_RF7xPIM-167" value="" style="endArrow=none;html=1;rounded=0;strokeColor=#068aef;strokeWidth=3;" parent="1" edge="1">
          <mxGeometry width="50" height="50" relative="1" as="geometry">
            <mxPoint x="555" y="490" as="sourcePoint" />
            <mxPoint x="655" y="490" as="targetPoint" />
          </mxGeometry>
        </mxCell>
        <mxCell id="7dqATPPd59ue_RF7xPIM-168" value="" style="endArrow=none;html=1;rounded=0;strokeColor=#068aef;strokeWidth=3;" parent="1" edge="1">
          <mxGeometry width="50" height="50" relative="1" as="geometry">
            <mxPoint x="675" y="530" as="sourcePoint" />
            <mxPoint x="655" y="490" as="targetPoint" />
          </mxGeometry>
        </mxCell>
        <mxCell id="7dqATPPd59ue_RF7xPIM-169" value="" style="endArrow=none;html=1;rounded=0;strokeColor=#068aef;strokeWidth=3;" parent="1" edge="1">
          <mxGeometry width="50" height="50" relative="1" as="geometry">
            <mxPoint x="675" y="530" as="sourcePoint" />
            <mxPoint x="775" y="530" as="targetPoint" />
          </mxGeometry>
        </mxCell>
        <mxCell id="7dqATPPd59ue_RF7xPIM-170" value="" style="endArrow=none;html=1;rounded=0;strokeColor=#068aef;strokeWidth=3;" parent="1" edge="1">
          <mxGeometry width="50" height="50" relative="1" as="geometry">
            <mxPoint x="775" y="530" as="sourcePoint" />
            <mxPoint x="795" y="490" as="targetPoint" />
          </mxGeometry>
        </mxCell>
        <mxCell id="7dqATPPd59ue_RF7xPIM-171" value="" style="endArrow=none;html=1;rounded=0;strokeColor=#068aef;strokeWidth=3;" parent="1" edge="1">
          <mxGeometry width="50" height="50" relative="1" as="geometry">
            <mxPoint x="795" y="490" as="sourcePoint" />
            <mxPoint x="895" y="490" as="targetPoint" />
          </mxGeometry>
        </mxCell>
        <mxCell id="7dqATPPd59ue_RF7xPIM-172" value="" style="endArrow=none;html=1;rounded=0;strokeColor=#068aef;strokeWidth=3;" parent="1" edge="1">
          <mxGeometry width="50" height="50" relative="1" as="geometry">
            <mxPoint x="915" y="530" as="sourcePoint" />
            <mxPoint x="895" y="490" as="targetPoint" />
          </mxGeometry>
        </mxCell>
        <mxCell id="7dqATPPd59ue_RF7xPIM-173" value="" style="endArrow=none;html=1;rounded=0;strokeColor=#068aef;strokeWidth=3;" parent="1" edge="1">
          <mxGeometry width="50" height="50" relative="1" as="geometry">
            <mxPoint x="915" y="530" as="sourcePoint" />
            <mxPoint x="1025" y="530" as="targetPoint" />
          </mxGeometry>
        </mxCell>
        <mxCell id="7dqATPPd59ue_RF7xPIM-174" value="" style="endArrow=none;html=1;rounded=0;strokeColor=#a10808;strokeWidth=3;" parent="1" edge="1">
          <mxGeometry width="50" height="50" relative="1" as="geometry">
            <mxPoint x="355" y="590" as="sourcePoint" />
            <mxPoint x="375" y="550" as="targetPoint" />
          </mxGeometry>
        </mxCell>
        <mxCell id="7dqATPPd59ue_RF7xPIM-175" value="" style="endArrow=none;html=1;rounded=0;strokeColor=#a10808;strokeWidth=3;" parent="1" edge="1">
          <mxGeometry width="50" height="50" relative="1" as="geometry">
            <mxPoint x="375" y="550" as="sourcePoint" />
            <mxPoint x="475" y="550" as="targetPoint" />
          </mxGeometry>
        </mxCell>
        <mxCell id="7dqATPPd59ue_RF7xPIM-176" value="" style="endArrow=none;html=1;rounded=0;strokeColor=#a10808;strokeWidth=3;" parent="1" edge="1">
          <mxGeometry width="50" height="50" relative="1" as="geometry">
            <mxPoint x="495" y="590" as="sourcePoint" />
            <mxPoint x="475" y="550" as="targetPoint" />
          </mxGeometry>
        </mxCell>
        <mxCell id="7dqATPPd59ue_RF7xPIM-177" value="" style="endArrow=none;html=1;rounded=0;strokeColor=#a10808;strokeWidth=3;" parent="1" edge="1">
          <mxGeometry width="50" height="50" relative="1" as="geometry">
            <mxPoint x="495" y="590" as="sourcePoint" />
            <mxPoint x="595" y="590" as="targetPoint" />
          </mxGeometry>
        </mxCell>
        <mxCell id="7dqATPPd59ue_RF7xPIM-178" value="" style="endArrow=none;html=1;rounded=0;strokeColor=#a10808;strokeWidth=3;" parent="1" edge="1">
          <mxGeometry width="50" height="50" relative="1" as="geometry">
            <mxPoint x="595" y="590" as="sourcePoint" />
            <mxPoint x="615" y="550" as="targetPoint" />
          </mxGeometry>
        </mxCell>
        <mxCell id="7dqATPPd59ue_RF7xPIM-179" value="" style="endArrow=none;html=1;rounded=0;strokeColor=#a10808;strokeWidth=3;" parent="1" edge="1">
          <mxGeometry width="50" height="50" relative="1" as="geometry">
            <mxPoint x="615" y="550" as="sourcePoint" />
            <mxPoint x="715" y="550" as="targetPoint" />
          </mxGeometry>
        </mxCell>
        <mxCell id="7dqATPPd59ue_RF7xPIM-180" value="" style="endArrow=none;html=1;rounded=0;strokeColor=#a10808;strokeWidth=3;" parent="1" edge="1">
          <mxGeometry width="50" height="50" relative="1" as="geometry">
            <mxPoint x="735" y="590" as="sourcePoint" />
            <mxPoint x="715" y="550" as="targetPoint" />
          </mxGeometry>
        </mxCell>
        <mxCell id="7dqATPPd59ue_RF7xPIM-181" value="" style="endArrow=none;html=1;rounded=0;strokeColor=#a10808;strokeWidth=3;" parent="1" edge="1">
          <mxGeometry width="50" height="50" relative="1" as="geometry">
            <mxPoint x="735" y="590" as="sourcePoint" />
            <mxPoint x="835" y="590" as="targetPoint" />
          </mxGeometry>
        </mxCell>
        <mxCell id="7dqATPPd59ue_RF7xPIM-182" value="" style="endArrow=none;html=1;rounded=0;strokeColor=#a10808;strokeWidth=3;" parent="1" edge="1">
          <mxGeometry width="50" height="50" relative="1" as="geometry">
            <mxPoint x="835" y="590" as="sourcePoint" />
            <mxPoint x="855" y="550" as="targetPoint" />
          </mxGeometry>
        </mxCell>
        <mxCell id="7dqATPPd59ue_RF7xPIM-183" value="" style="endArrow=none;html=1;rounded=0;strokeColor=#a10808;strokeWidth=3;" parent="1" edge="1">
          <mxGeometry width="50" height="50" relative="1" as="geometry">
            <mxPoint x="855" y="550" as="sourcePoint" />
            <mxPoint x="955" y="550" as="targetPoint" />
          </mxGeometry>
        </mxCell>
        <mxCell id="7dqATPPd59ue_RF7xPIM-184" value="" style="endArrow=none;html=1;rounded=0;strokeColor=#a10808;strokeWidth=3;" parent="1" edge="1">
          <mxGeometry width="50" height="50" relative="1" as="geometry">
            <mxPoint x="975" y="590" as="sourcePoint" />
            <mxPoint x="955" y="550" as="targetPoint" />
          </mxGeometry>
        </mxCell>
        <mxCell id="7dqATPPd59ue_RF7xPIM-185" value="" style="endArrow=none;html=1;rounded=0;strokeColor=#a10808;strokeWidth=3;" parent="1" edge="1">
          <mxGeometry width="50" height="50" relative="1" as="geometry">
            <mxPoint x="975" y="590" as="sourcePoint" />
            <mxPoint x="1025" y="590" as="targetPoint" />
          </mxGeometry>
        </mxCell>
        <mxCell id="7dqATPPd59ue_RF7xPIM-186" value="" style="endArrow=none;html=1;rounded=0;strokeColor=#419806;strokeWidth=3;" parent="1" edge="1">
          <mxGeometry width="50" height="50" relative="1" as="geometry">
            <mxPoint x="145" y="470" as="sourcePoint" />
            <mxPoint x="235" y="470" as="targetPoint" />
          </mxGeometry>
        </mxCell>
        <mxCell id="7dqATPPd59ue_RF7xPIM-187" value="" style="endArrow=none;html=1;rounded=0;strokeColor=#068aef;strokeWidth=3;" parent="1" edge="1">
          <mxGeometry width="50" height="50" relative="1" as="geometry">
            <mxPoint x="195" y="530" as="sourcePoint" />
            <mxPoint x="175" y="490" as="targetPoint" />
          </mxGeometry>
        </mxCell>
        <mxCell id="7dqATPPd59ue_RF7xPIM-188" value="" style="endArrow=none;html=1;rounded=0;strokeColor=#068aef;strokeWidth=3;" parent="1" edge="1">
          <mxGeometry width="50" height="50" relative="1" as="geometry">
            <mxPoint x="195" y="530" as="sourcePoint" />
            <mxPoint x="295" y="530" as="targetPoint" />
          </mxGeometry>
        </mxCell>
        <mxCell id="7dqATPPd59ue_RF7xPIM-189" value="" style="endArrow=none;html=1;rounded=0;strokeColor=#068aef;strokeWidth=3;" parent="1" edge="1">
          <mxGeometry width="50" height="50" relative="1" as="geometry">
            <mxPoint x="145" y="490" as="sourcePoint" />
            <mxPoint x="175" y="490" as="targetPoint" />
          </mxGeometry>
        </mxCell>
        <mxCell id="7dqATPPd59ue_RF7xPIM-190" value="" style="endArrow=none;html=1;rounded=0;strokeColor=#a10808;strokeWidth=3;" parent="1" edge="1">
          <mxGeometry width="50" height="50" relative="1" as="geometry">
            <mxPoint x="145" y="550" as="sourcePoint" />
            <mxPoint x="235" y="550" as="targetPoint" />
          </mxGeometry>
        </mxCell>
        <mxCell id="7dqATPPd59ue_RF7xPIM-191" value="" style="endArrow=none;html=1;rounded=0;strokeColor=#a10808;strokeWidth=3;" parent="1" edge="1">
          <mxGeometry width="50" height="50" relative="1" as="geometry">
            <mxPoint x="255" y="590" as="sourcePoint" />
            <mxPoint x="235" y="550" as="targetPoint" />
          </mxGeometry>
        </mxCell>
        <mxCell id="7dqATPPd59ue_RF7xPIM-192" value="" style="endArrow=none;html=1;rounded=0;strokeColor=#a10808;strokeWidth=3;" parent="1" edge="1">
          <mxGeometry width="50" height="50" relative="1" as="geometry">
            <mxPoint x="255" y="590" as="sourcePoint" />
            <mxPoint x="355" y="590" as="targetPoint" />
          </mxGeometry>
        </mxCell>
        <mxCell id="7dqATPPd59ue_RF7xPIM-193" value="" style="endArrow=none;html=1;rounded=0;strokeColor=#f5a905;strokeWidth=3;" parent="1" edge="1">
          <mxGeometry width="50" height="50" relative="1" as="geometry">
            <mxPoint x="175" y="650" as="sourcePoint" />
            <mxPoint x="195" y="610" as="targetPoint" />
          </mxGeometry>
        </mxCell>
        <mxCell id="7dqATPPd59ue_RF7xPIM-194" value="" style="endArrow=none;html=1;rounded=0;strokeColor=#f5a905;strokeWidth=3;" parent="1" edge="1">
          <mxGeometry width="50" height="50" relative="1" as="geometry">
            <mxPoint x="195" y="610" as="sourcePoint" />
            <mxPoint x="415" y="610" as="targetPoint" />
          </mxGeometry>
        </mxCell>
        <mxCell id="7dqATPPd59ue_RF7xPIM-195" value="" style="endArrow=none;html=1;rounded=0;strokeColor=#f5a905;strokeWidth=3;" parent="1" edge="1">
          <mxGeometry width="50" height="50" relative="1" as="geometry">
            <mxPoint x="435" y="650" as="sourcePoint" />
            <mxPoint x="415" y="610" as="targetPoint" />
          </mxGeometry>
        </mxCell>
        <mxCell id="7dqATPPd59ue_RF7xPIM-196" value="" style="endArrow=none;html=1;rounded=0;strokeColor=#f5a905;strokeWidth=3;" parent="1" edge="1">
          <mxGeometry width="50" height="50" relative="1" as="geometry">
            <mxPoint x="195" y="650" as="sourcePoint" />
            <mxPoint x="415" y="650" as="targetPoint" />
          </mxGeometry>
        </mxCell>
        <mxCell id="7dqATPPd59ue_RF7xPIM-197" value="" style="endArrow=none;html=1;rounded=0;strokeColor=#f5a905;strokeWidth=3;" parent="1" edge="1">
          <mxGeometry width="50" height="50" relative="1" as="geometry">
            <mxPoint x="415" y="650" as="sourcePoint" />
            <mxPoint x="435" y="610" as="targetPoint" />
          </mxGeometry>
        </mxCell>
        <mxCell id="7dqATPPd59ue_RF7xPIM-198" value="" style="endArrow=none;html=1;rounded=0;strokeColor=#f5a905;strokeWidth=3;" parent="1" edge="1">
          <mxGeometry width="50" height="50" relative="1" as="geometry">
            <mxPoint x="145" y="650" as="sourcePoint" />
            <mxPoint x="175" y="650" as="targetPoint" />
          </mxGeometry>
        </mxCell>
        <mxCell id="7dqATPPd59ue_RF7xPIM-199" value="" style="endArrow=none;html=1;rounded=0;strokeColor=#f5a905;strokeWidth=3;" parent="1" edge="1">
          <mxGeometry width="50" height="50" relative="1" as="geometry">
            <mxPoint x="195" y="650" as="sourcePoint" />
            <mxPoint x="175" y="610" as="targetPoint" />
          </mxGeometry>
        </mxCell>
        <mxCell id="7dqATPPd59ue_RF7xPIM-200" value="" style="endArrow=none;html=1;rounded=0;strokeColor=#f5a905;strokeWidth=3;" parent="1" edge="1">
          <mxGeometry width="50" height="50" relative="1" as="geometry">
            <mxPoint x="145" y="610" as="sourcePoint" />
            <mxPoint x="175" y="610" as="targetPoint" />
          </mxGeometry>
        </mxCell>
        <mxCell id="7dqATPPd59ue_RF7xPIM-201" value="" style="endArrow=none;html=1;rounded=0;strokeColor=#f5a905;strokeWidth=3;" parent="1" edge="1">
          <mxGeometry width="50" height="50" relative="1" as="geometry">
            <mxPoint x="435" y="610" as="sourcePoint" />
            <mxPoint x="655" y="610" as="targetPoint" />
          </mxGeometry>
        </mxCell>
        <mxCell id="7dqATPPd59ue_RF7xPIM-202" value="" style="endArrow=none;html=1;rounded=0;strokeColor=#f5a905;strokeWidth=3;" parent="1" edge="1">
          <mxGeometry width="50" height="50" relative="1" as="geometry">
            <mxPoint x="675" y="650" as="sourcePoint" />
            <mxPoint x="655" y="610" as="targetPoint" />
          </mxGeometry>
        </mxCell>
        <mxCell id="7dqATPPd59ue_RF7xPIM-203" value="" style="endArrow=none;html=1;rounded=0;strokeColor=#f5a905;strokeWidth=3;" parent="1" edge="1">
          <mxGeometry width="50" height="50" relative="1" as="geometry">
            <mxPoint x="435" y="650" as="sourcePoint" />
            <mxPoint x="655" y="650" as="targetPoint" />
          </mxGeometry>
        </mxCell>
        <mxCell id="7dqATPPd59ue_RF7xPIM-204" value="" style="endArrow=none;html=1;rounded=0;strokeColor=#f5a905;strokeWidth=3;" parent="1" edge="1">
          <mxGeometry width="50" height="50" relative="1" as="geometry">
            <mxPoint x="655" y="650" as="sourcePoint" />
            <mxPoint x="675" y="610" as="targetPoint" />
          </mxGeometry>
        </mxCell>
        <mxCell id="7dqATPPd59ue_RF7xPIM-205" value="" style="endArrow=none;html=1;rounded=0;strokeColor=#f5a905;strokeWidth=3;" parent="1" edge="1">
          <mxGeometry width="50" height="50" relative="1" as="geometry">
            <mxPoint x="675" y="650" as="sourcePoint" />
            <mxPoint x="705" y="650" as="targetPoint" />
          </mxGeometry>
        </mxCell>
        <mxCell id="7dqATPPd59ue_RF7xPIM-206" value="" style="endArrow=none;html=1;rounded=0;strokeColor=#f5a905;strokeWidth=3;" parent="1" edge="1">
          <mxGeometry width="50" height="50" relative="1" as="geometry">
            <mxPoint x="675" y="610" as="sourcePoint" />
            <mxPoint x="705" y="610" as="targetPoint" />
          </mxGeometry>
        </mxCell>
        <mxCell id="7dqATPPd59ue_RF7xPIM-207" value="" style="endArrow=none;html=1;rounded=0;strokeColor=#409905;strokeWidth=3;" parent="1" edge="1">
          <mxGeometry width="50" height="50" relative="1" as="geometry">
            <mxPoint x="235" y="710" as="sourcePoint" />
            <mxPoint x="255" y="670" as="targetPoint" />
          </mxGeometry>
        </mxCell>
        <mxCell id="7dqATPPd59ue_RF7xPIM-208" value="" style="endArrow=none;html=1;rounded=0;strokeColor=#409905;strokeWidth=3;" parent="1" edge="1">
          <mxGeometry width="50" height="50" relative="1" as="geometry">
            <mxPoint x="255" y="670" as="sourcePoint" />
            <mxPoint x="475" y="670" as="targetPoint" />
          </mxGeometry>
        </mxCell>
        <mxCell id="7dqATPPd59ue_RF7xPIM-209" value="" style="endArrow=none;html=1;rounded=0;strokeColor=#409905;strokeWidth=3;" parent="1" edge="1">
          <mxGeometry width="50" height="50" relative="1" as="geometry">
            <mxPoint x="495" y="710" as="sourcePoint" />
            <mxPoint x="475" y="670" as="targetPoint" />
          </mxGeometry>
        </mxCell>
        <mxCell id="7dqATPPd59ue_RF7xPIM-210" value="" style="endArrow=none;html=1;rounded=0;strokeColor=#409905;strokeWidth=3;" parent="1" edge="1">
          <mxGeometry width="50" height="50" relative="1" as="geometry">
            <mxPoint x="255" y="710" as="sourcePoint" />
            <mxPoint x="475" y="710" as="targetPoint" />
          </mxGeometry>
        </mxCell>
        <mxCell id="7dqATPPd59ue_RF7xPIM-211" value="" style="endArrow=none;html=1;rounded=0;strokeColor=#409905;strokeWidth=3;" parent="1" edge="1">
          <mxGeometry width="50" height="50" relative="1" as="geometry">
            <mxPoint x="475" y="710" as="sourcePoint" />
            <mxPoint x="495" y="670" as="targetPoint" />
          </mxGeometry>
        </mxCell>
        <mxCell id="7dqATPPd59ue_RF7xPIM-212" value="" style="endArrow=none;html=1;rounded=0;strokeColor=#409905;strokeWidth=3;" parent="1" edge="1">
          <mxGeometry width="50" height="50" relative="1" as="geometry">
            <mxPoint x="205" y="710" as="sourcePoint" />
            <mxPoint x="235" y="710" as="targetPoint" />
          </mxGeometry>
        </mxCell>
        <mxCell id="7dqATPPd59ue_RF7xPIM-213" value="" style="endArrow=none;html=1;rounded=0;strokeColor=#409905;strokeWidth=3;" parent="1" edge="1">
          <mxGeometry width="50" height="50" relative="1" as="geometry">
            <mxPoint x="255" y="710" as="sourcePoint" />
            <mxPoint x="235" y="670" as="targetPoint" />
          </mxGeometry>
        </mxCell>
        <mxCell id="7dqATPPd59ue_RF7xPIM-214" value="" style="endArrow=none;html=1;rounded=0;strokeColor=#409905;strokeWidth=3;" parent="1" edge="1">
          <mxGeometry width="50" height="50" relative="1" as="geometry">
            <mxPoint x="205" y="670" as="sourcePoint" />
            <mxPoint x="235" y="670" as="targetPoint" />
          </mxGeometry>
        </mxCell>
        <mxCell id="7dqATPPd59ue_RF7xPIM-215" value="" style="endArrow=none;html=1;rounded=0;strokeColor=#409905;strokeWidth=3;" parent="1" edge="1">
          <mxGeometry width="50" height="50" relative="1" as="geometry">
            <mxPoint x="495" y="670" as="sourcePoint" />
            <mxPoint x="715" y="670" as="targetPoint" />
          </mxGeometry>
        </mxCell>
        <mxCell id="7dqATPPd59ue_RF7xPIM-216" value="" style="endArrow=none;html=1;rounded=0;strokeColor=#409905;strokeWidth=3;" parent="1" edge="1">
          <mxGeometry width="50" height="50" relative="1" as="geometry">
            <mxPoint x="735" y="710" as="sourcePoint" />
            <mxPoint x="715" y="670" as="targetPoint" />
          </mxGeometry>
        </mxCell>
        <mxCell id="7dqATPPd59ue_RF7xPIM-217" value="" style="endArrow=none;html=1;rounded=0;strokeColor=#409905;strokeWidth=3;" parent="1" edge="1">
          <mxGeometry width="50" height="50" relative="1" as="geometry">
            <mxPoint x="495" y="710" as="sourcePoint" />
            <mxPoint x="715" y="710" as="targetPoint" />
          </mxGeometry>
        </mxCell>
        <mxCell id="7dqATPPd59ue_RF7xPIM-218" value="" style="endArrow=none;html=1;rounded=0;strokeColor=#409905;strokeWidth=3;" parent="1" edge="1">
          <mxGeometry width="50" height="50" relative="1" as="geometry">
            <mxPoint x="715" y="710" as="sourcePoint" />
            <mxPoint x="735" y="670" as="targetPoint" />
          </mxGeometry>
        </mxCell>
        <mxCell id="7dqATPPd59ue_RF7xPIM-219" value="" style="endArrow=none;html=1;rounded=0;strokeColor=#409905;strokeWidth=3;" parent="1" edge="1">
          <mxGeometry width="50" height="50" relative="1" as="geometry">
            <mxPoint x="735" y="710" as="sourcePoint" />
            <mxPoint x="765" y="710" as="targetPoint" />
          </mxGeometry>
        </mxCell>
        <mxCell id="7dqATPPd59ue_RF7xPIM-220" value="" style="endArrow=none;html=1;rounded=0;strokeColor=#409905;strokeWidth=3;" parent="1" edge="1">
          <mxGeometry width="50" height="50" relative="1" as="geometry">
            <mxPoint x="735" y="670" as="sourcePoint" />
            <mxPoint x="765" y="670" as="targetPoint" />
          </mxGeometry>
        </mxCell>
        <mxCell id="7dqATPPd59ue_RF7xPIM-221" value="" style="endArrow=none;html=1;rounded=0;strokeColor=#248aef;strokeWidth=3;" parent="1" edge="1">
          <mxGeometry width="50" height="50" relative="1" as="geometry">
            <mxPoint x="295" y="770" as="sourcePoint" />
            <mxPoint x="315" y="730" as="targetPoint" />
          </mxGeometry>
        </mxCell>
        <mxCell id="7dqATPPd59ue_RF7xPIM-222" value="" style="endArrow=none;html=1;rounded=0;strokeColor=#248aef;strokeWidth=3;" parent="1" edge="1">
          <mxGeometry width="50" height="50" relative="1" as="geometry">
            <mxPoint x="315" y="730" as="sourcePoint" />
            <mxPoint x="535" y="730" as="targetPoint" />
          </mxGeometry>
        </mxCell>
        <mxCell id="7dqATPPd59ue_RF7xPIM-223" value="" style="endArrow=none;html=1;rounded=0;strokeColor=#248aef;strokeWidth=3;" parent="1" edge="1">
          <mxGeometry width="50" height="50" relative="1" as="geometry">
            <mxPoint x="555" y="770" as="sourcePoint" />
            <mxPoint x="535" y="730" as="targetPoint" />
          </mxGeometry>
        </mxCell>
        <mxCell id="7dqATPPd59ue_RF7xPIM-224" value="" style="endArrow=none;html=1;rounded=0;strokeColor=#258aef;strokeWidth=3;" parent="1" edge="1">
          <mxGeometry width="50" height="50" relative="1" as="geometry">
            <mxPoint x="315" y="770" as="sourcePoint" />
            <mxPoint x="535" y="770" as="targetPoint" />
          </mxGeometry>
        </mxCell>
        <mxCell id="7dqATPPd59ue_RF7xPIM-225" value="" style="endArrow=none;html=1;rounded=0;strokeColor=#248aef;strokeWidth=3;" parent="1" edge="1">
          <mxGeometry width="50" height="50" relative="1" as="geometry">
            <mxPoint x="535" y="770" as="sourcePoint" />
            <mxPoint x="555" y="730" as="targetPoint" />
          </mxGeometry>
        </mxCell>
        <mxCell id="7dqATPPd59ue_RF7xPIM-226" value="" style="endArrow=none;html=1;rounded=0;strokeColor=#258aef;strokeWidth=3;" parent="1" edge="1">
          <mxGeometry width="50" height="50" relative="1" as="geometry">
            <mxPoint x="265" y="770" as="sourcePoint" />
            <mxPoint x="295" y="770" as="targetPoint" />
          </mxGeometry>
        </mxCell>
        <mxCell id="7dqATPPd59ue_RF7xPIM-227" value="" style="endArrow=none;html=1;rounded=0;strokeColor=#248aef;strokeWidth=3;" parent="1" edge="1">
          <mxGeometry width="50" height="50" relative="1" as="geometry">
            <mxPoint x="315" y="770" as="sourcePoint" />
            <mxPoint x="295" y="730" as="targetPoint" />
          </mxGeometry>
        </mxCell>
        <mxCell id="7dqATPPd59ue_RF7xPIM-228" value="" style="endArrow=none;html=1;rounded=0;strokeColor=#248aef;strokeWidth=3;" parent="1" edge="1">
          <mxGeometry width="50" height="50" relative="1" as="geometry">
            <mxPoint x="265" y="730" as="sourcePoint" />
            <mxPoint x="295" y="730" as="targetPoint" />
          </mxGeometry>
        </mxCell>
        <mxCell id="7dqATPPd59ue_RF7xPIM-229" value="" style="endArrow=none;html=1;rounded=0;strokeColor=#248aef;strokeWidth=3;" parent="1" edge="1">
          <mxGeometry width="50" height="50" relative="1" as="geometry">
            <mxPoint x="555" y="730" as="sourcePoint" />
            <mxPoint x="775" y="730" as="targetPoint" />
          </mxGeometry>
        </mxCell>
        <mxCell id="7dqATPPd59ue_RF7xPIM-230" value="" style="endArrow=none;html=1;rounded=0;strokeColor=#248aef;strokeWidth=3;" parent="1" edge="1">
          <mxGeometry width="50" height="50" relative="1" as="geometry">
            <mxPoint x="795" y="770" as="sourcePoint" />
            <mxPoint x="775" y="730" as="targetPoint" />
          </mxGeometry>
        </mxCell>
        <mxCell id="7dqATPPd59ue_RF7xPIM-231" value="" style="endArrow=none;html=1;rounded=0;strokeColor=#258aef;strokeWidth=3;" parent="1" edge="1">
          <mxGeometry width="50" height="50" relative="1" as="geometry">
            <mxPoint x="555" y="770" as="sourcePoint" />
            <mxPoint x="775" y="770" as="targetPoint" />
          </mxGeometry>
        </mxCell>
        <mxCell id="7dqATPPd59ue_RF7xPIM-232" value="" style="endArrow=none;html=1;rounded=0;strokeColor=#248aef;strokeWidth=3;" parent="1" edge="1">
          <mxGeometry width="50" height="50" relative="1" as="geometry">
            <mxPoint x="775" y="770" as="sourcePoint" />
            <mxPoint x="795" y="730" as="targetPoint" />
          </mxGeometry>
        </mxCell>
        <mxCell id="7dqATPPd59ue_RF7xPIM-233" value="" style="endArrow=none;html=1;rounded=0;strokeColor=#258aef;strokeWidth=3;" parent="1" edge="1">
          <mxGeometry width="50" height="50" relative="1" as="geometry">
            <mxPoint x="795" y="770" as="sourcePoint" />
            <mxPoint x="825" y="770" as="targetPoint" />
          </mxGeometry>
        </mxCell>
        <mxCell id="7dqATPPd59ue_RF7xPIM-234" value="" style="endArrow=none;html=1;rounded=0;strokeColor=#248aef;strokeWidth=3;" parent="1" edge="1">
          <mxGeometry width="50" height="50" relative="1" as="geometry">
            <mxPoint x="795" y="730" as="sourcePoint" />
            <mxPoint x="825" y="730" as="targetPoint" />
          </mxGeometry>
        </mxCell>
        <mxCell id="7dqATPPd59ue_RF7xPIM-235" value="" style="endArrow=none;html=1;rounded=0;strokeColor=#a10c08;strokeWidth=3;" parent="1" edge="1">
          <mxGeometry width="50" height="50" relative="1" as="geometry">
            <mxPoint x="355" y="830" as="sourcePoint" />
            <mxPoint x="375" y="790" as="targetPoint" />
          </mxGeometry>
        </mxCell>
        <mxCell id="7dqATPPd59ue_RF7xPIM-236" value="" style="endArrow=none;html=1;rounded=0;strokeColor=#a10c08;strokeWidth=3;" parent="1" edge="1">
          <mxGeometry width="50" height="50" relative="1" as="geometry">
            <mxPoint x="375" y="790" as="sourcePoint" />
            <mxPoint x="595" y="790" as="targetPoint" />
          </mxGeometry>
        </mxCell>
        <mxCell id="7dqATPPd59ue_RF7xPIM-237" value="" style="endArrow=none;html=1;rounded=0;strokeColor=#a10c08;strokeWidth=3;" parent="1" edge="1">
          <mxGeometry width="50" height="50" relative="1" as="geometry">
            <mxPoint x="615" y="830" as="sourcePoint" />
            <mxPoint x="595" y="790" as="targetPoint" />
          </mxGeometry>
        </mxCell>
        <mxCell id="7dqATPPd59ue_RF7xPIM-238" value="" style="endArrow=none;html=1;rounded=0;strokeColor=#a10c08;strokeWidth=3;" parent="1" edge="1">
          <mxGeometry width="50" height="50" relative="1" as="geometry">
            <mxPoint x="375" y="830" as="sourcePoint" />
            <mxPoint x="595" y="830" as="targetPoint" />
          </mxGeometry>
        </mxCell>
        <mxCell id="7dqATPPd59ue_RF7xPIM-239" value="" style="endArrow=none;html=1;rounded=0;strokeColor=#a10c08;strokeWidth=3;" parent="1" edge="1">
          <mxGeometry width="50" height="50" relative="1" as="geometry">
            <mxPoint x="595" y="830" as="sourcePoint" />
            <mxPoint x="615" y="790" as="targetPoint" />
          </mxGeometry>
        </mxCell>
        <mxCell id="7dqATPPd59ue_RF7xPIM-240" value="" style="endArrow=none;html=1;rounded=0;strokeColor=#a10c08;strokeWidth=3;" parent="1" edge="1">
          <mxGeometry width="50" height="50" relative="1" as="geometry">
            <mxPoint x="325" y="830" as="sourcePoint" />
            <mxPoint x="355" y="830" as="targetPoint" />
          </mxGeometry>
        </mxCell>
        <mxCell id="7dqATPPd59ue_RF7xPIM-241" value="" style="endArrow=none;html=1;rounded=0;strokeColor=#a10c08;strokeWidth=3;" parent="1" edge="1">
          <mxGeometry width="50" height="50" relative="1" as="geometry">
            <mxPoint x="375" y="830" as="sourcePoint" />
            <mxPoint x="355" y="790" as="targetPoint" />
          </mxGeometry>
        </mxCell>
        <mxCell id="7dqATPPd59ue_RF7xPIM-242" value="" style="endArrow=none;html=1;rounded=0;strokeColor=#a10c08;strokeWidth=3;" parent="1" edge="1">
          <mxGeometry width="50" height="50" relative="1" as="geometry">
            <mxPoint x="325" y="790" as="sourcePoint" />
            <mxPoint x="355" y="790" as="targetPoint" />
          </mxGeometry>
        </mxCell>
        <mxCell id="7dqATPPd59ue_RF7xPIM-243" value="" style="endArrow=none;html=1;rounded=0;strokeColor=#a10c08;strokeWidth=3;" parent="1" edge="1">
          <mxGeometry width="50" height="50" relative="1" as="geometry">
            <mxPoint x="615" y="790" as="sourcePoint" />
            <mxPoint x="835" y="790" as="targetPoint" />
          </mxGeometry>
        </mxCell>
        <mxCell id="7dqATPPd59ue_RF7xPIM-244" value="" style="endArrow=none;html=1;rounded=0;strokeColor=#a10c08;strokeWidth=3;" parent="1" edge="1">
          <mxGeometry width="50" height="50" relative="1" as="geometry">
            <mxPoint x="855" y="830" as="sourcePoint" />
            <mxPoint x="835" y="790" as="targetPoint" />
          </mxGeometry>
        </mxCell>
        <mxCell id="7dqATPPd59ue_RF7xPIM-245" value="" style="endArrow=none;html=1;rounded=0;strokeColor=#a10c08;strokeWidth=3;" parent="1" edge="1">
          <mxGeometry width="50" height="50" relative="1" as="geometry">
            <mxPoint x="615" y="830" as="sourcePoint" />
            <mxPoint x="835" y="830" as="targetPoint" />
          </mxGeometry>
        </mxCell>
        <mxCell id="7dqATPPd59ue_RF7xPIM-246" value="" style="endArrow=none;html=1;rounded=0;strokeColor=#a10c08;strokeWidth=3;" parent="1" edge="1">
          <mxGeometry width="50" height="50" relative="1" as="geometry">
            <mxPoint x="835" y="830" as="sourcePoint" />
            <mxPoint x="855" y="790" as="targetPoint" />
          </mxGeometry>
        </mxCell>
        <mxCell id="7dqATPPd59ue_RF7xPIM-247" value="" style="endArrow=none;html=1;rounded=0;strokeColor=#a10c08;strokeWidth=3;" parent="1" edge="1">
          <mxGeometry width="50" height="50" relative="1" as="geometry">
            <mxPoint x="855" y="830" as="sourcePoint" />
            <mxPoint x="885" y="830" as="targetPoint" />
          </mxGeometry>
        </mxCell>
        <mxCell id="7dqATPPd59ue_RF7xPIM-248" value="" style="endArrow=none;html=1;rounded=0;strokeColor=#a10c08;strokeWidth=3;" parent="1" edge="1">
          <mxGeometry width="50" height="50" relative="1" as="geometry">
            <mxPoint x="855" y="790" as="sourcePoint" />
            <mxPoint x="885" y="790" as="targetPoint" />
          </mxGeometry>
        </mxCell>
        <mxCell id="7dqATPPd59ue_RF7xPIM-249" value="" style="endArrow=none;html=1;rounded=0;strokeColor=#160160;strokeWidth=3;" parent="1" edge="1">
          <mxGeometry width="50" height="50" relative="1" as="geometry">
            <mxPoint x="1000" y="349.58000000000004" as="sourcePoint" />
            <mxPoint x="1025" y="350" as="targetPoint" />
          </mxGeometry>
        </mxCell>
        <mxCell id="7dqATPPd59ue_RF7xPIM-250" value="" style="endArrow=none;html=1;rounded=0;strokeColor=#160160;strokeWidth=3;" parent="1" edge="1">
          <mxGeometry width="50" height="50" relative="1" as="geometry">
            <mxPoint x="1001" y="309.58000000000004" as="sourcePoint" />
            <mxPoint x="1025" y="310" as="targetPoint" />
          </mxGeometry>
        </mxCell>
        <mxCell id="7dqATPPd59ue_RF7xPIM-251" value="" style="endArrow=classic;html=1;rounded=0;strokeColor=#0a0a0a;strokeWidth=3;endFill=1;" parent="1" edge="1">
          <mxGeometry width="50" height="50" relative="1" as="geometry">
            <mxPoint x="1015" y="290" as="sourcePoint" />
            <mxPoint x="1035" y="250" as="targetPoint" />
          </mxGeometry>
        </mxCell>
        <mxCell id="7dqATPPd59ue_RF7xPIM-252" value="" style="endArrow=none;html=1;rounded=0;strokeColor=#0a0a0a;strokeWidth=3;dashed=1;" parent="1" edge="1">
          <mxGeometry width="50" height="50" relative="1" as="geometry">
            <mxPoint x="1036" y="290" as="sourcePoint" />
            <mxPoint x="1016" y="250" as="targetPoint" />
          </mxGeometry>
        </mxCell>
        <mxCell id="7dqATPPd59ue_RF7xPIM-253" value="DQS_0" style="text;html=1;align=center;verticalAlign=middle;whiteSpace=wrap;rounded=0;fontColor=#f5a904;fontStyle=1" parent="1" vertex="1">
          <mxGeometry x="75" y="380" width="60" height="20" as="geometry" />
        </mxCell>
        <mxCell id="7dqATPPd59ue_RF7xPIM-254" value="DQS_90" style="text;html=1;align=center;verticalAlign=middle;whiteSpace=wrap;rounded=0;fontColor=#419805;fontStyle=1" parent="1" vertex="1">
          <mxGeometry x="75" y="440" width="60" height="20" as="geometry" />
        </mxCell>
        <mxCell id="7dqATPPd59ue_RF7xPIM-255" value="DQS_180" style="text;html=1;align=center;verticalAlign=middle;whiteSpace=wrap;rounded=0;fontColor=#248aef;fontStyle=1" parent="1" vertex="1">
          <mxGeometry x="75" y="500" width="60" height="20" as="geometry" />
        </mxCell>
        <mxCell id="7dqATPPd59ue_RF7xPIM-256" value="DQS_270" style="text;html=1;align=center;verticalAlign=middle;whiteSpace=wrap;rounded=0;fontColor=#a10c08;fontStyle=1" parent="1" vertex="1">
          <mxGeometry x="75" y="560" width="60" height="20" as="geometry" />
        </mxCell>
        <mxCell id="7dqATPPd59ue_RF7xPIM-257" value="Splitter 0" style="text;html=1;align=center;verticalAlign=middle;whiteSpace=wrap;rounded=0;fontColor=#f5a904;fontStyle=1" parent="1" vertex="1">
          <mxGeometry x="75" y="620" width="60" height="20" as="geometry" />
        </mxCell>
        <mxCell id="7dqATPPd59ue_RF7xPIM-258" value="Splitter 90" style="text;html=1;align=center;verticalAlign=middle;whiteSpace=wrap;rounded=0;fontColor=#419805;fontStyle=1" parent="1" vertex="1">
          <mxGeometry x="70" y="680" width="70" height="20" as="geometry" />
        </mxCell>
        <mxCell id="7dqATPPd59ue_RF7xPIM-259" value="Splitter 180" style="text;html=1;align=center;verticalAlign=middle;whiteSpace=wrap;rounded=0;fontColor=#248aef;fontStyle=1" parent="1" vertex="1">
          <mxGeometry x="70" y="740" width="70" height="20" as="geometry" />
        </mxCell>
        <mxCell id="7dqATPPd59ue_RF7xPIM-260" value="Splitter 270" style="text;html=1;align=center;verticalAlign=middle;whiteSpace=wrap;rounded=0;fontColor=#a10c08;fontStyle=1" parent="1" vertex="1">
          <mxGeometry x="70" y="800" width="70" height="20" as="geometry" />
        </mxCell>
        <mxCell id="7dqATPPd59ue_RF7xPIM-261" value="" style="endArrow=none;dashed=1;html=1;rounded=0;" parent="1" target="7dqATPPd59ue_RF7xPIM-262" edge="1">
          <mxGeometry width="50" height="50" relative="1" as="geometry">
            <mxPoint x="185" y="850" as="sourcePoint" />
            <mxPoint x="185" y="210" as="targetPoint" />
          </mxGeometry>
        </mxCell>
        <mxCell id="7dqATPPd59ue_RF7xPIM-262" value="UI0" style="text;html=1;align=center;verticalAlign=middle;whiteSpace=wrap;rounded=0;fontColor=#0a0a0a;fontStyle=1;strokeColor=none;" parent="1" vertex="1">
          <mxGeometry x="165" y="320" width="40" height="20" as="geometry" />
        </mxCell>
        <mxCell id="7dqATPPd59ue_RF7xPIM-263" value="" style="endArrow=none;dashed=1;html=1;rounded=0;" parent="1" target="7dqATPPd59ue_RF7xPIM-264" edge="1">
          <mxGeometry width="50" height="50" relative="1" as="geometry">
            <mxPoint x="245" y="850" as="sourcePoint" />
            <mxPoint x="245" y="210" as="targetPoint" />
          </mxGeometry>
        </mxCell>
        <mxCell id="7dqATPPd59ue_RF7xPIM-264" value="UI1" style="text;html=1;align=center;verticalAlign=middle;whiteSpace=wrap;rounded=0;fontColor=#0a0a0a;fontStyle=1;strokeColor=none;" parent="1" vertex="1">
          <mxGeometry x="225" y="320" width="40" height="20" as="geometry" />
        </mxCell>
        <mxCell id="7dqATPPd59ue_RF7xPIM-265" value="UI2" style="text;html=1;align=center;verticalAlign=middle;whiteSpace=wrap;rounded=0;fontColor=#0a0a0a;fontStyle=1;strokeColor=none;" parent="1" vertex="1">
          <mxGeometry x="285" y="320" width="40" height="20" as="geometry" />
        </mxCell>
        <mxCell id="7dqATPPd59ue_RF7xPIM-266" value="UI3" style="text;html=1;align=center;verticalAlign=middle;whiteSpace=wrap;rounded=0;fontColor=#0a0a0a;fontStyle=1;strokeColor=none;" parent="1" vertex="1">
          <mxGeometry x="345" y="320" width="40" height="20" as="geometry" />
        </mxCell>
        <mxCell id="7dqATPPd59ue_RF7xPIM-267" value="UI4" style="text;html=1;align=center;verticalAlign=middle;whiteSpace=wrap;rounded=0;fontColor=#0a0a0a;fontStyle=1;strokeColor=none;" parent="1" vertex="1">
          <mxGeometry x="405" y="320" width="40" height="20" as="geometry" />
        </mxCell>
        <mxCell id="7dqATPPd59ue_RF7xPIM-268" value="UI5" style="text;html=1;align=center;verticalAlign=middle;whiteSpace=wrap;rounded=0;fontColor=#0a0a0a;fontStyle=1;strokeColor=none;" parent="1" vertex="1">
          <mxGeometry x="465" y="320" width="40" height="20" as="geometry" />
        </mxCell>
        <mxCell id="7dqATPPd59ue_RF7xPIM-269" value="UI6" style="text;html=1;align=center;verticalAlign=middle;whiteSpace=wrap;rounded=0;fontColor=#0a0a0a;fontStyle=1;strokeColor=none;" parent="1" vertex="1">
          <mxGeometry x="525" y="320" width="40" height="20" as="geometry" />
        </mxCell>
        <mxCell id="7dqATPPd59ue_RF7xPIM-270" value="UI7" style="text;html=1;align=center;verticalAlign=middle;whiteSpace=wrap;rounded=0;fontColor=#0a0a0a;fontStyle=1;strokeColor=none;" parent="1" vertex="1">
          <mxGeometry x="585" y="320" width="40" height="20" as="geometry" />
        </mxCell>
        <mxCell id="7dqATPPd59ue_RF7xPIM-271" value="UI0" style="text;html=1;align=center;verticalAlign=middle;whiteSpace=wrap;rounded=0;fontColor=#0a0a0a;fontStyle=1;strokeColor=none;" parent="1" vertex="1">
          <mxGeometry x="645" y="320" width="40" height="20" as="geometry" />
        </mxCell>
        <mxCell id="7dqATPPd59ue_RF7xPIM-272" value="UI1" style="text;html=1;align=center;verticalAlign=middle;whiteSpace=wrap;rounded=0;fontColor=#0a0a0a;fontStyle=1;strokeColor=none;" parent="1" vertex="1">
          <mxGeometry x="705" y="320" width="40" height="20" as="geometry" />
        </mxCell>
        <mxCell id="7dqATPPd59ue_RF7xPIM-273" value="UI2" style="text;html=1;align=center;verticalAlign=middle;whiteSpace=wrap;rounded=0;fontColor=#0a0a0a;fontStyle=1;strokeColor=none;" parent="1" vertex="1">
          <mxGeometry x="765" y="320" width="40" height="20" as="geometry" />
        </mxCell>
        <mxCell id="7dqATPPd59ue_RF7xPIM-274" value="UI3" style="text;html=1;align=center;verticalAlign=middle;whiteSpace=wrap;rounded=0;fontColor=#0a0a0a;fontStyle=1;strokeColor=none;" parent="1" vertex="1">
          <mxGeometry x="825" y="320" width="40" height="20" as="geometry" />
        </mxCell>
        <mxCell id="7dqATPPd59ue_RF7xPIM-275" value="UI4" style="text;html=1;align=center;verticalAlign=middle;whiteSpace=wrap;rounded=0;fontColor=#0a0a0a;fontStyle=1;strokeColor=none;" parent="1" vertex="1">
          <mxGeometry x="885" y="320" width="40" height="20" as="geometry" />
        </mxCell>
        <mxCell id="7dqATPPd59ue_RF7xPIM-276" value="UI5" style="text;html=1;align=center;verticalAlign=middle;whiteSpace=wrap;rounded=0;fontColor=#0a0a0a;fontStyle=1;strokeColor=none;" parent="1" vertex="1">
          <mxGeometry x="945" y="320" width="40" height="20" as="geometry" />
        </mxCell>
        <mxCell id="7dqATPPd59ue_RF7xPIM-277" value="" style="endArrow=none;dashed=1;html=1;rounded=0;" parent="1" target="7dqATPPd59ue_RF7xPIM-278" edge="1">
          <mxGeometry width="50" height="50" relative="1" as="geometry">
            <mxPoint x="305" y="850" as="sourcePoint" />
            <mxPoint x="305" y="210" as="targetPoint" />
          </mxGeometry>
        </mxCell>
        <mxCell id="7dqATPPd59ue_RF7xPIM-278" value="UI0" style="text;html=1;align=center;verticalAlign=middle;whiteSpace=wrap;rounded=0;fontColor=#0a0a0a;fontStyle=1;strokeColor=none;" parent="1" vertex="1">
          <mxGeometry x="285" y="620" width="40" height="20" as="geometry" />
        </mxCell>
        <mxCell id="7dqATPPd59ue_RF7xPIM-279" value="" style="endArrow=none;dashed=1;html=1;rounded=0;" parent="1" target="7dqATPPd59ue_RF7xPIM-280" edge="1">
          <mxGeometry width="50" height="50" relative="1" as="geometry">
            <mxPoint x="365" y="850" as="sourcePoint" />
            <mxPoint x="365" y="210" as="targetPoint" />
          </mxGeometry>
        </mxCell>
        <mxCell id="7dqATPPd59ue_RF7xPIM-280" value="UI1" style="text;html=1;align=center;verticalAlign=middle;whiteSpace=wrap;rounded=0;fontColor=#0a0a0a;fontStyle=1;strokeColor=none;" parent="1" vertex="1">
          <mxGeometry x="345" y="680" width="40" height="20" as="geometry" />
        </mxCell>
        <mxCell id="7dqATPPd59ue_RF7xPIM-281" value="UI2" style="text;html=1;align=center;verticalAlign=middle;whiteSpace=wrap;rounded=0;fontColor=#0a0a0a;fontStyle=1;strokeColor=none;" parent="1" vertex="1">
          <mxGeometry x="405" y="740" width="40" height="20" as="geometry" />
        </mxCell>
        <mxCell id="7dqATPPd59ue_RF7xPIM-282" value="UI3" style="text;html=1;align=center;verticalAlign=middle;whiteSpace=wrap;rounded=0;fontColor=#0a0a0a;fontStyle=1;strokeColor=none;" parent="1" vertex="1">
          <mxGeometry x="465" y="800" width="40" height="20" as="geometry" />
        </mxCell>
        <mxCell id="7dqATPPd59ue_RF7xPIM-283" value="UI4" style="text;html=1;align=center;verticalAlign=middle;whiteSpace=wrap;rounded=0;fontColor=#0a0a0a;fontStyle=1;strokeColor=none;" parent="1" vertex="1">
          <mxGeometry x="525" y="620" width="40" height="20" as="geometry" />
        </mxCell>
        <mxCell id="7dqATPPd59ue_RF7xPIM-284" value="" style="endArrow=none;dashed=1;html=1;rounded=0;" parent="1" target="7dqATPPd59ue_RF7xPIM-285" edge="1">
          <mxGeometry width="50" height="50" relative="1" as="geometry">
            <mxPoint x="605" y="850" as="sourcePoint" />
            <mxPoint x="605" y="200" as="targetPoint" />
          </mxGeometry>
        </mxCell>
        <mxCell id="7dqATPPd59ue_RF7xPIM-285" value="UI5" style="text;html=1;align=center;verticalAlign=middle;whiteSpace=wrap;rounded=0;fontColor=#0a0a0a;fontStyle=1;strokeColor=none;" parent="1" vertex="1">
          <mxGeometry x="585" y="680" width="40" height="20" as="geometry" />
        </mxCell>
        <mxCell id="7dqATPPd59ue_RF7xPIM-286" value="" style="endArrow=none;dashed=1;html=1;rounded=0;" parent="1" target="7dqATPPd59ue_RF7xPIM-287" edge="1">
          <mxGeometry width="50" height="50" relative="1" as="geometry">
            <mxPoint x="665" y="850" as="sourcePoint" />
            <mxPoint x="665" y="200" as="targetPoint" />
          </mxGeometry>
        </mxCell>
        <mxCell id="7dqATPPd59ue_RF7xPIM-287" value="UI6" style="text;html=1;align=center;verticalAlign=middle;whiteSpace=wrap;rounded=0;fontColor=#0a0a0a;fontStyle=1;strokeColor=none;" parent="1" vertex="1">
          <mxGeometry x="645" y="740" width="40" height="20" as="geometry" />
        </mxCell>
        <mxCell id="7dqATPPd59ue_RF7xPIM-288" value="" style="endArrow=none;dashed=1;html=1;rounded=0;" parent="1" target="7dqATPPd59ue_RF7xPIM-289" edge="1">
          <mxGeometry width="50" height="50" relative="1" as="geometry">
            <mxPoint x="725" y="850" as="sourcePoint" />
            <mxPoint x="725" y="200" as="targetPoint" />
          </mxGeometry>
        </mxCell>
        <mxCell id="7dqATPPd59ue_RF7xPIM-289" value="UI7" style="text;html=1;align=center;verticalAlign=middle;whiteSpace=wrap;rounded=0;fontColor=#0a0a0a;fontStyle=1;strokeColor=none;" parent="1" vertex="1">
          <mxGeometry x="705" y="800" width="40" height="20" as="geometry" />
        </mxCell>
        <mxCell id="Xz5qoYyIWEr8Bpw18LzR-1" value="" style="endArrow=none;dashed=1;html=1;rounded=0;" edge="1" parent="1">
          <mxGeometry width="50" height="50" relative="1" as="geometry">
            <mxPoint x="904.5" y="850" as="sourcePoint" />
            <mxPoint x="904.5" y="200" as="targetPoint" />
          </mxGeometry>
        </mxCell>
        <mxCell id="Xz5qoYyIWEr8Bpw18LzR-2" value="" style="endArrow=none;dashed=1;html=1;rounded=0;" edge="1" parent="1">
          <mxGeometry width="50" height="50" relative="1" as="geometry">
            <mxPoint x="964.5" y="850" as="sourcePoint" />
            <mxPoint x="964.5" y="200" as="targetPoint" />
          </mxGeometry>
        </mxCell>
      </root>
    </mxGraphModel>
  </diagram>
</mxfile>
